<?xml version="1.0" encoding="utf-8"?>
<!-- Generator: Adobe Illustrator 16.0.0, SVG Export Plug-In . SVG Version: 6.00 Build 0)  -->
<!DOCTYPE svg PUBLIC "-//W3C//DTD SVG 1.1//EN" "http://www.w3.org/Graphics/SVG/1.1/DTD/svg11.dtd">
<svg version="1.1" xmlns="http://www.w3.org/2000/svg" xmlns:xlink="http://www.w3.org/1999/xlink" x="0px" y="0px"
	 width="241.421px" height="200px" viewBox="0 0 241.421 200" enable-background="new 0 0 241.421 200" xml:space="preserve">
<g id="foli-grey" display="none">
	<radialGradient id="SVGID_1_" cx="26.4355" cy="684.5654" r="103.0261" gradientUnits="userSpaceOnUse">
		<stop  offset="0" style="stop-color:#878787;stop-opacity:0.95"/>
		<stop  offset="1" style="stop-color:#575756;stop-opacity:0.95"/>
	</radialGradient>
	<polygon display="inline" fill="url(#SVGID_1_)" points="1.674,756.65 1.674,725.698 -33.7,685.902 -33.7,792.023 72.421,792.023 
		32.626,756.65 	"/>
	
		<radialGradient id="SVGID_2_" cx="10.1309" cy="449.4814" r="90.2194" gradientTransform="matrix(-1 0 0 1 259.7139 0)" gradientUnits="userSpaceOnUse">
		<stop  offset="0" style="stop-color:#878787;stop-opacity:0.95"/>
		<stop  offset="1" style="stop-color:#575756;stop-opacity:0.95"/>
	</radialGradient>
	<polygon display="inline" fill="url(#SVGID_2_)" points="249.289,509.035 218.336,509.035 178.542,473.662 284.662,473.662 
		284.662,579.782 249.289,539.986 	"/>
	<radialGradient id="SVGID_3_" cx="178.2466" cy="685.3018" r="125.9096" gradientUnits="userSpaceOnUse">
		<stop  offset="0" style="stop-color:#878787;stop-opacity:0.95"/>
		<stop  offset="1" style="stop-color:#575756;stop-opacity:0.95"/>
	</radialGradient>
	<polygon display="inline" fill="url(#SVGID_3_)" points="249.289,756.65 218.336,756.65 178.542,792.023 284.662,792.023 
		284.662,685.902 249.289,725.698 	"/>
	
		<radialGradient id="SVGID_4_" cx="185.8193" cy="435.332" r="180.8827" gradientTransform="matrix(-1 0 0 1 259.7139 0)" gradientUnits="userSpaceOnUse">
		<stop  offset="0" style="stop-color:#878787;stop-opacity:0.95"/>
		<stop  offset="1" style="stop-color:#575756;stop-opacity:0.95"/>
	</radialGradient>
	<polygon display="inline" fill="url(#SVGID_4_)" points="1.674,509.035 1.674,539.986 -33.7,579.782 -33.7,473.662 72.421,473.662 
		32.626,509.035 	"/>
	<radialGradient id="SVGID_5_" cx="135.2075" cy="686.4824" r="173.3324" gradientUnits="userSpaceOnUse">
		<stop  offset="0" style="stop-color:#9D9D9C"/>
		<stop  offset="1" style="stop-color:#575756"/>
	</radialGradient>
	<path display="inline" fill="url(#SVGID_5_)" d="M55.618,636.37v70.747v49.533h53.061v-49.533v-53.061
		c0-43.35,14.172-89.636,53.06-117.041v-63.354C95.544,498.326,59.958,554.502,55.618,636.37z"/>
	
		<radialGradient id="SVGID_6_" cx="130.542" cy="619.2734" r="119.7948" gradientTransform="matrix(1.2058 0 0 1 -31.2138 0)" gradientUnits="userSpaceOnUse">
		<stop  offset="0" style="stop-color:#9D9D9C"/>
		<stop  offset="1" style="stop-color:#575756"/>
	</radialGradient>
	<path display="inline" fill="url(#SVGID_6_)" d="M161.738,505.498v-14.149c-63.853,19.731-98.184,64.672-102.37,130.167
		l1.449-0.061C68.829,563.66,102.617,523.768,161.738,505.498z"/>
	<path display="inline" fill="#575756" d="M55.618,707.117v49.533h53.061v-49.533V689.43h17.687v-53.06H109.5
		c3.513-37.751,18.741-75.488,52.237-99.194v-6.185C94.191,560.745,55.618,630.513,55.618,707.117z"/>
	<polygon display="inline" fill="#575756" points="-24.856,711.107 -24.856,783.18 58.935,783.18 48.985,774.337 -19.55,774.337 	
		"/>
	<polygon display="inline" fill="#575756" points="266.974,723.487 266.974,774.337 201.975,774.337 192.026,783.18 203.745,783.18 
		275.818,783.18 275.818,725.256 275.818,713.539 	"/>
	<polygon display="inline" fill="#B2B2B2" points="269.959,482.505 197.886,482.505 269.959,488.723 	"/>
	<polygon display="inline" fill="#B2B2B2" points="-24.856,482.505 47.217,482.505 -24.856,488.723 	"/>
	<polyline display="inline" opacity="0.2" fill="#9D9D9C" points="284.662,473.662 178.542,473.662 210.367,501.951 
		284.662,496.645 	"/>
	<polyline display="inline" opacity="0.2" fill="#9D9D9C" points="32.626,509.035 1.674,509.035 1.674,526.723 -33.7,537.176 
		-33.7,473.662 72.421,473.662 	"/>
	<g display="inline">
		<g>
			<linearGradient id="SVGID_7_" gradientUnits="userSpaceOnUse" x1="-176.0332" y1="805.3857" x2="-176.0332" y2="993.0562">
				<stop  offset="0" style="stop-color:#878787"/>
				<stop  offset="1" style="stop-color:#575756"/>
			</linearGradient>
			<path fill="url(#SVGID_7_)" d="M-146.033,847.934v-0.09v-3.406v-14.414v-8v-10c-37.425,13.945-57.546,45.707-60,91.994v40v28.006
				h30v-28.006v-10h10v-30h-9.535C-173.582,882.674-164.973,861.338-146.033,847.934z"/>
		</g>
		<g>
			<linearGradient id="SVGID_8_" gradientUnits="userSpaceOnUse" x1="-120.9097" y1="805.3848" x2="-120.9097" y2="993.056">
				<stop  offset="0" style="stop-color:#878787"/>
				<stop  offset="1" style="stop-color:#575756"/>
			</linearGradient>
			<path fill="url(#SVGID_8_)" d="M-120.91,897.023c-22.091,0-40,17.909-40,40c0,22.092,17.909,40,40,40s40-17.908,40-40
				C-80.91,914.933-98.818,897.023-120.91,897.023z M-120.91,952.023c-8.284,0-15-6.715-15-15c0-8.284,6.716-15,15-15
				s15,6.716,15,15C-105.91,945.309-112.625,952.023-120.91,952.023z"/>
		</g>
		<g>
			<linearGradient id="SVGID_9_" gradientUnits="userSpaceOnUse" x1="130.021" y1="805.3848" x2="130.021" y2="993.056">
				<stop  offset="0" style="stop-color:#878787"/>
				<stop  offset="1" style="stop-color:#575756"/>
			</linearGradient>
			<path fill="url(#SVGID_9_)" d="M130.021,897.023c-22.091,0-40,17.909-40,40c0,22.092,17.909,40,40,40s40-17.908,40-40
				C170.021,914.933,152.112,897.023,130.021,897.023z M130.021,952.023c-8.284,0-15-6.715-15-15c0-8.284,6.716-15,15-15
				s15,6.716,15,15C145.021,945.309,138.305,952.023,130.021,952.023z"/>
		</g>
		<g>
			<linearGradient id="SVGID_10_" gradientUnits="userSpaceOnUse" x1="417.4546" y1="805.3848" x2="417.4546" y2="993.056">
				<stop  offset="0" style="stop-color:#878787"/>
				<stop  offset="1" style="stop-color:#575756"/>
			</linearGradient>
			<path fill="url(#SVGID_10_)" d="M417.455,897.023c-22.091,0-40,17.909-40,40c0,22.092,17.909,40,40,40s40-17.908,40-40
				C457.455,914.933,439.545,897.023,417.455,897.023z M417.455,952.023c-8.284,0-15-6.715-15-15c0-8.284,6.716-15,15-15
				s15,6.716,15,15C432.455,945.309,425.739,952.023,417.455,952.023z"/>
		</g>
		<g>
			<linearGradient id="SVGID_11_" gradientUnits="userSpaceOnUse" x1="311.9878" y1="805.3848" x2="311.9878" y2="993.0558">
				<stop  offset="0" style="stop-color:#878787"/>
				<stop  offset="1" style="stop-color:#575756"/>
			</linearGradient>
			<circle fill="url(#SVGID_11_)" cx="311.988" cy="972.023" r="15"/>
		</g>
		<g>
			<linearGradient id="SVGID_12_" gradientUnits="userSpaceOnUse" x1="352.2212" y1="805.3857" x2="352.2212" y2="993.0568">
				<stop  offset="0" style="stop-color:#878787"/>
				<stop  offset="1" style="stop-color:#575756"/>
			</linearGradient>
			<circle fill="url(#SVGID_12_)" cx="352.221" cy="879.484" r="15"/>
		</g>
		<g>
			<linearGradient id="SVGID_13_" gradientUnits="userSpaceOnUse" x1="-20.2114" y1="805.3857" x2="-20.2114" y2="993.0568">
				<stop  offset="0" style="stop-color:#878787"/>
				<stop  offset="1" style="stop-color:#575756"/>
			</linearGradient>
			<circle fill="url(#SVGID_13_)" cx="-20.211" cy="879.484" r="15"/>
		</g>
		<g>
			<linearGradient id="SVGID_14_" gradientUnits="userSpaceOnUse" x1="-60.6768" y1="805.3857" x2="-60.6768" y2="993.0568">
				<stop  offset="0" style="stop-color:#878787"/>
				<stop  offset="1" style="stop-color:#575756"/>
			</linearGradient>
			<polygon fill="url(#SVGID_14_)" points="-75.91,812.023 -75.91,977.023 -45.444,977.023 -45.444,812.023 -45.91,812.023 			"/>
		</g>
		<g>
			<linearGradient id="SVGID_15_" gradientUnits="userSpaceOnUse" x1="266.9878" y1="805.3848" x2="266.9878" y2="993.0556">
				<stop  offset="0" style="stop-color:#878787"/>
				<stop  offset="1" style="stop-color:#575756"/>
			</linearGradient>
			<polygon fill="url(#SVGID_15_)" points="277.454,866.012 276.988,866.012 246.988,866.012 246.988,977.023 277.454,977.023 
				277.454,934.018 286.988,934.018 286.988,904.018 277.454,904.018 			"/>
		</g>
		<g>
			<linearGradient id="SVGID_16_" gradientUnits="userSpaceOnUse" x1="45.0215" y1="805.3848" x2="45.0215" y2="993.0569">
				<stop  offset="0" style="stop-color:#878787"/>
				<stop  offset="1" style="stop-color:#575756"/>
			</linearGradient>
			<path fill="url(#SVGID_16_)" d="M45.021,897.023c-18.664,0-30.206,4.287-40,6.995v111.012h30.466v-39.159
				c3.057,0.748,6.246,1.152,9.533,1.152c22.092,0,40-17.908,40-40C85.021,914.933,67.113,897.023,45.021,897.023z M45.021,952.023
				c-8.283,0-15-6.715-15-15c0-8.284,6.717-15,15-15c8.285,0,15,6.716,15,15C60.021,945.309,53.306,952.023,45.021,952.023z"/>
		</g>
		<g>
			<linearGradient id="SVGID_17_" gradientUnits="userSpaceOnUse" x1="-20.2114" y1="805.3867" x2="-20.2114" y2="993.0567">
				<stop  offset="0" style="stop-color:#878787"/>
				<stop  offset="1" style="stop-color:#575756"/>
			</linearGradient>
			<rect x="-35.444" y="904.019" fill="url(#SVGID_17_)" width="30.466" height="73.005"/>
		</g>
		<g>
			<linearGradient id="SVGID_18_" gradientUnits="userSpaceOnUse" x1="352.2212" y1="805.3867" x2="352.2212" y2="993.0567">
				<stop  offset="0" style="stop-color:#878787"/>
				<stop  offset="1" style="stop-color:#575756"/>
			</linearGradient>
			<rect x="336.988" y="904.019" fill="url(#SVGID_18_)" width="30.467" height="73.005"/>
		</g>
		<g>
			<linearGradient id="SVGID_19_" gradientUnits="userSpaceOnUse" x1="208.5044" y1="805.3848" x2="208.5044" y2="993.056">
				<stop  offset="0" style="stop-color:#878787"/>
				<stop  offset="1" style="stop-color:#575756"/>
			</linearGradient>
			<path fill="url(#SVGID_19_)" d="M175.021,914.019v63.005h30.467v-51.582c2.592-2.135,5.912-3.418,9.533-3.418
				c3.485,0,6.686,1.199,9.232,3.194l17.734-17.734c-7.112-6.495-19.005-10.46-29.396-10.46
				C193.928,897.023,183.426,904.186,175.021,914.019z"/>
		</g>
	</g>
</g>
<g id="foli-color">
	
		<radialGradient id="SVGID_20_" cx="90.2852" cy="3.2573" r="35.4287" gradientTransform="matrix(-1 0 0 1 259.7139 0)" gradientUnits="userSpaceOnUse">
		<stop  offset="0" style="stop-color:#F5ECC3"/>
		<stop  offset="1" style="stop-color:#E6D069"/>
	</radialGradient>
	<polygon fill="url(#SVGID_20_)" points="168.212,13.068 156.777,13.068 142.075,0 181.28,0 181.28,39.204 168.212,24.502 	"/>
	
		<radialGradient id="SVGID_21_" cx="166.8271" cy="2.4629" r="45.3485" gradientTransform="matrix(-1 0 0 1 259.7139 0)" gradientUnits="userSpaceOnUse">
		<stop  offset="0" style="stop-color:#F5ECC3"/>
		<stop  offset="1" style="stop-color:#E6D069"/>
	</radialGradient>
	<polygon fill="url(#SVGID_21_)" points="76.734,13.068 76.734,24.502 63.666,39.204 63.666,0 102.871,0 88.169,13.068 	"/>
	<polyline opacity="0.2" fill="#FFFFFF" points="181.28,0 142.075,0 153.833,10.451 181.28,8.49 	"/>
	<polyline opacity="0.2" fill="#FFFFFF" points="88.169,13.068 76.734,13.068 76.734,19.602 63.666,23.464 63.666,0 102.871,0 	"/>
	<g>
		<g>
			<linearGradient id="SVGID_22_" gradientUnits="userSpaceOnUse" x1="11.083" y1="123.3926" x2="11.083" y2="182.1415">
				<stop  offset="0" style="stop-color:#E6D069"/>
				<stop  offset="1" style="stop-color:#D79B51"/>
			</linearGradient>
			<path fill="url(#SVGID_22_)" d="M22.167,138.269v-0.033v-1.258v-5.325v-2.956v-3.694C8.34,130.154,0.907,141.888,0,158.988
				v14.777v10.347h11.083v-10.347v-3.694h3.694v-11.083h-3.522C11.989,151.104,15.169,143.221,22.167,138.269z"/>
		</g>
		<g>
			<linearGradient id="SVGID_23_" gradientUnits="userSpaceOnUse" x1="31.4478" y1="123.3931" x2="31.4478" y2="182.1413">
				<stop  offset="0" style="stop-color:#E6D069"/>
				<stop  offset="1" style="stop-color:#D79B51"/>
			</linearGradient>
			<path fill="url(#SVGID_23_)" d="M31.448,156.404c-8.161,0-14.777,6.616-14.777,14.777s6.616,14.777,14.777,14.777
				s14.777-6.616,14.777-14.777S39.609,156.404,31.448,156.404z M31.448,176.724c-3.061,0-5.542-2.481-5.542-5.542
				s2.481-5.541,5.542-5.541s5.542,2.48,5.542,5.541S34.508,176.724,31.448,176.724z"/>
		</g>
		<g>
			<linearGradient id="SVGID_24_" gradientUnits="userSpaceOnUse" x1="124.1504" y1="123.3931" x2="124.1504" y2="182.1413">
				<stop  offset="0" style="stop-color:#E6D069"/>
				<stop  offset="1" style="stop-color:#D79B51"/>
			</linearGradient>
			<path fill="url(#SVGID_24_)" d="M124.15,156.404c-8.161,0-14.777,6.616-14.777,14.777s6.616,14.777,14.777,14.777
				s14.777-6.616,14.777-14.777S132.312,156.404,124.15,156.404z M124.15,176.724c-3.061,0-5.542-2.481-5.542-5.542
				s2.481-5.541,5.542-5.541s5.542,2.48,5.542,5.541S127.211,176.724,124.15,176.724z"/>
		</g>
		<g>
			<linearGradient id="SVGID_25_" gradientUnits="userSpaceOnUse" x1="226.644" y1="123.3931" x2="226.644" y2="182.1413">
				<stop  offset="0" style="stop-color:#E6D069"/>
				<stop  offset="1" style="stop-color:#D79B51"/>
			</linearGradient>
			<path fill="url(#SVGID_25_)" d="M226.644,156.404c-8.161,0-14.777,6.616-14.777,14.777s6.616,14.777,14.777,14.777
				s14.777-6.616,14.777-14.777S234.805,156.404,226.644,156.404z M226.644,176.724c-3.061,0-5.542-2.481-5.542-5.542
				s2.481-5.541,5.542-5.541s5.541,2.48,5.541,5.541S229.705,176.724,226.644,176.724z"/>
		</g>
		<g>
			<linearGradient id="SVGID_26_" gradientUnits="userSpaceOnUse" x1="187.6807" y1="123.3936" x2="187.6807" y2="182.1416">
				<stop  offset="0" style="stop-color:#E6D069"/>
				<stop  offset="1" style="stop-color:#D79B51"/>
			</linearGradient>
			<circle fill="url(#SVGID_26_)" cx="187.681" cy="182.265" r="5.542"/>
		</g>
		<g>
			<linearGradient id="SVGID_27_" gradientUnits="userSpaceOnUse" x1="202.5444" y1="123.3931" x2="202.5444" y2="182.1411">
				<stop  offset="0" style="stop-color:#E6D069"/>
				<stop  offset="1" style="stop-color:#D79B51"/>
			</linearGradient>
			<circle fill="url(#SVGID_27_)" cx="202.544" cy="149.924" r="5.542"/>
		</g>
		<g>
			<linearGradient id="SVGID_28_" gradientUnits="userSpaceOnUse" x1="68.6494" y1="123.3931" x2="68.6494" y2="182.1411">
				<stop  offset="0" style="stop-color:#E6D069"/>
				<stop  offset="1" style="stop-color:#D79B51"/>
			</linearGradient>
			<circle fill="url(#SVGID_28_)" cx="68.649" cy="149.924" r="5.542"/>
		</g>
		<g>
			<linearGradient id="SVGID_29_" gradientUnits="userSpaceOnUse" x1="53.6997" y1="123.3926" x2="53.6997" y2="182.141">
				<stop  offset="0" style="stop-color:#E6D069"/>
				<stop  offset="1" style="stop-color:#D79B51"/>
			</linearGradient>
			<polygon fill="url(#SVGID_29_)" points="48.072,125.002 48.072,185.959 59.327,185.959 59.327,125.002 59.155,125.002 			"/>
		</g>
		<g>
			<linearGradient id="SVGID_30_" gradientUnits="userSpaceOnUse" x1="174.7505" y1="123.3926" x2="174.7505" y2="182.1411">
				<stop  offset="0" style="stop-color:#E6D069"/>
				<stop  offset="1" style="stop-color:#D79B51"/>
			</linearGradient>
			<polygon fill="url(#SVGID_30_)" points="178.617,144.947 178.445,144.947 167.362,144.947 167.362,185.959 178.617,185.959 
				178.617,170.071 182.139,170.071 182.139,158.988 178.617,158.988 			"/>
		</g>
		<g>
			<linearGradient id="SVGID_31_" gradientUnits="userSpaceOnUse" x1="92.7485" y1="123.3931" x2="92.7485" y2="182.1413">
				<stop  offset="0" style="stop-color:#E6D069"/>
				<stop  offset="1" style="stop-color:#D79B51"/>
			</linearGradient>
			<path fill="url(#SVGID_31_)" d="M92.749,156.404c-6.896,0-11.159,1.583-14.777,2.584V200h11.255v-14.467
				c1.129,0.276,2.307,0.426,3.522,0.426c8.161,0,14.777-6.616,14.777-14.777S100.91,156.404,92.749,156.404z M92.749,176.724
				c-3.061,0-5.542-2.481-5.542-5.542s2.481-5.541,5.542-5.541s5.542,2.48,5.542,5.541S95.809,176.724,92.749,176.724z"/>
		</g>
		<g>
			<linearGradient id="SVGID_32_" gradientUnits="userSpaceOnUse" x1="68.6494" y1="123.3931" x2="68.6494" y2="182.1412">
				<stop  offset="0" style="stop-color:#E6D069"/>
				<stop  offset="1" style="stop-color:#D79B51"/>
			</linearGradient>
			<rect x="63.021" y="158.988" fill="url(#SVGID_32_)" width="11.255" height="26.971"/>
		</g>
		<g>
			<linearGradient id="SVGID_33_" gradientUnits="userSpaceOnUse" x1="202.5444" y1="123.3931" x2="202.5444" y2="182.1412">
				<stop  offset="0" style="stop-color:#E6D069"/>
				<stop  offset="1" style="stop-color:#D79B51"/>
			</linearGradient>
			<rect x="196.917" y="158.988" fill="url(#SVGID_33_)" width="11.256" height="26.971"/>
		</g>
		<g>
			<linearGradient id="SVGID_34_" gradientUnits="userSpaceOnUse" x1="153.1445" y1="123.3931" x2="153.1445" y2="182.1413">
				<stop  offset="0" style="stop-color:#E6D069"/>
				<stop  offset="1" style="stop-color:#D79B51"/>
			</linearGradient>
			<path fill="url(#SVGID_34_)" d="M140.775,162.683v23.276h11.255v-19.056c0.958-0.789,2.184-1.263,3.522-1.263
				c1.288,0,2.47,0.442,3.411,1.18l6.552-6.552c-2.627-2.399-7.021-3.864-10.86-3.864C147.76,156.404,143.88,159.05,140.775,162.683
				z"/>
		</g>
	</g>
	<radialGradient id="SVGID_35_" cx="85.8823" cy="80.1313" r="41.3345" gradientUnits="userSpaceOnUse">
		<stop  offset="0" style="stop-color:#F5ECC3"/>
		<stop  offset="1" style="stop-color:#E6D069"/>
	</radialGradient>
	<polygon fill="url(#SVGID_35_)" points="76.734,104.545 76.734,93.111 63.666,78.409 63.666,117.614 102.871,117.614 
		88.169,104.545 	"/>
	<radialGradient id="SVGID_36_" cx="151.9404" cy="87.0532" r="42.4413" gradientUnits="userSpaceOnUse">
		<stop  offset="0" style="stop-color:#F5ECC3"/>
		<stop  offset="1" style="stop-color:#E6D069"/>
	</radialGradient>
	<polygon fill="url(#SVGID_36_)" points="168.212,104.545 156.777,104.545 142.075,117.614 181.28,117.614 181.28,78.409 
		168.212,93.111 	"/>
	<radialGradient id="SVGID_37_" cx="126.0664" cy="78.623" r="64.0348" gradientUnits="userSpaceOnUse">
		<stop  offset="0" style="stop-color:#E6D069"/>
		<stop  offset="1" style="stop-color:#D79B51"/>
	</radialGradient>
	<path fill="url(#SVGID_37_)" d="M96.663,60.11v26.136v18.299h19.603V86.246V66.644c0-16.015,5.235-33.114,19.602-43.239V0
		C111.414,9.112,98.267,29.865,96.663,60.11z"/>
	
		<radialGradient id="SVGID_38_" cx="127.6743" cy="53.7935" r="44.2587" gradientTransform="matrix(1.2058 0 0 1 -31.2138 0)" gradientUnits="userSpaceOnUse">
		<stop  offset="0" style="stop-color:#E6D069"/>
		<stop  offset="1" style="stop-color:#D79B51"/>
	</radialGradient>
	<path fill="url(#SVGID_38_)" d="M135.868,11.761V6.534c-23.589,7.29-36.272,23.892-37.819,48.088l0.536-0.022
		C101.543,33.248,114.026,18.51,135.868,11.761z"/>
	<path fill="#D79B51" d="M96.663,86.246v18.299h19.603V86.246v-6.534h6.534V60.11h-6.23c1.298-13.947,6.923-27.888,19.298-36.646
		v-2.285C110.914,32.171,96.663,57.946,96.663,86.246z"/>
	<polygon fill="#E6D069" points="66.933,87.72 66.933,114.347 97.889,114.347 94.213,111.08 68.894,111.08 	"/>
	<polygon fill="#E6D069" points="174.746,92.294 174.746,111.08 150.732,111.08 147.057,114.347 151.386,114.347 178.013,114.347 
		178.013,92.947 178.013,88.619 	"/>
	<polygon fill="#F5ECC3" points="66.933,3.267 93.56,3.267 66.933,5.564 	"/>
</g>
<g id="tme" display="none">
	<g display="inline">
		<g>
			<path fill="#EA560D" d="M20.865-97.888H7.936v-8.937h35.352v8.937H30.359v57.34h-9.494V-97.888z"/>
		</g>
		<g>
			<path fill="#EA560D" d="M48.458-106.824h9.122l12.195,35.093h0.186l12.102-35.093h9.215v66.277h-9.495v-40.306h-0.187
				l-9.401,28.484h-4.748L58.14-80.854h-0.187v40.306h-9.495V-106.824z"/>
		</g>
		<g>
			<path fill="#EA560D" d="M99.036-106.824h27.595v8.937h-18.102v19.454h12.929v8.936h-12.929v19.456h18.102v9.495H99.036V-106.824z
				"/>
		</g>
	</g>
	<g display="inline">
		<linearGradient id="SVGID_39_" gradientUnits="userSpaceOnUse" x1="-49.959" y1="-34.6387" x2="-49.959" y2="-2.2391">
			<stop  offset="0" style="stop-color:#CCDC7C"/>
			<stop  offset="1" style="stop-color:#95C11F"/>
		</linearGradient>
		<path fill="url(#SVGID_39_)" d="M-61.868-33.922c0.272-0.045,0.448-0.068,0.523-0.068c0.514,0,1.363,0.031,2.544,0.09
			c0.621,0.015,1.045,0.023,1.273,0.023c0.333,0,1.038-0.031,2.113-0.09l3.863-0.228c1.016-0.09,2.198-0.137,3.546-0.137
			c2.379,0,4.272,0.338,5.681,1.01c1.409,0.676,2.496,1.73,3.261,3.167c0.766,1.439,1.148,2.868,1.148,4.292
			c0,2.374-0.833,4.424-2.5,6.149c-1.667,1.724-3.909,2.587-6.727,2.587c-0.788,0-1.447-0.08-1.977-0.24
			c-0.531-0.158-1.137-0.465-1.819-0.92c-0.288-0.197-0.462-0.402-0.522-0.613c0.061-0.105,0.144-0.182,0.25-0.228
			c0.212,0,0.432,0.046,0.659,0.136c0.515,0.183,1.167,0.274,1.955,0.274c1.197,0,2.329-0.295,3.398-0.885
			c1.068-0.59,1.875-1.43,2.42-2.518c0.545-1.09,0.818-2.24,0.818-3.45c0-1.179-0.288-2.326-0.862-3.437
			c-0.574-1.113-1.331-2-2.268-2.666c-0.529-0.379-1.342-0.695-2.438-0.953c-1.097-0.256-1.947-0.385-2.551-0.385
			c-1.875,0-2.987,0.135-3.335,0.407l-0.022,0.319l0.068,2.565l-0.022,0.455c-0.031,0.408-0.046,1.037-0.046,1.885
			c0,3.088,0.046,5.009,0.137,5.768v1.271l0.294,10.377c0,0.15-0.018,0.432-0.056,0.84s-0.057,0.764-0.057,1.066
			c0,0.727,0.06,1.279,0.182,1.66c0.363,0.105,1.424,0.355,3.181,0.747c0.818,0.197,1.265,0.311,1.34,0.341
			c0.122,0.045,0.228,0.145,0.319,0.295c-0.062,0.228-0.141,0.375-0.239,0.445c-0.098,0.067-0.292,0.1-0.579,0.1
			c-0.182,0-0.607-0.037-1.273-0.112c-1.303-0.136-2.325-0.205-3.068-0.205l-4,0.159l-2.386-0.068c-0.152,0-0.591,0.016-1.319,0.047
			l-0.021-0.591l2.954-0.567c0.485-0.137,0.78-0.273,0.887-0.41c0.151-0.211,0.227-0.628,0.227-1.248
			c0-0.137,0.008-0.432,0.023-0.887c0.015-0.318,0.023-0.755,0.023-1.316c0-1.787-0.077-5.594-0.228-11.422
			c-0.061-2.725-0.091-5.496-0.091-8.311v-0.386c0-1.09-0.167-1.779-0.5-2.066c-0.561-0.499-1.961-0.909-4.204-1.227
			c-0.075-0.166-0.114-0.303-0.114-0.408C-62.004-33.613-61.958-33.756-61.868-33.922z"/>
		<linearGradient id="SVGID_40_" gradientUnits="userSpaceOnUse" x1="-24.4141" y1="-34.6382" x2="-24.4141" y2="-2.2385">
			<stop  offset="0" style="stop-color:#CCDC7C"/>
			<stop  offset="1" style="stop-color:#95C11F"/>
		</linearGradient>
		<path fill="url(#SVGID_40_)" d="M-36.067-4.67l0.016-0.349c0.36-0.202,0.779-0.329,1.256-0.381
			c0.754-0.096,1.231-0.195,1.432-0.295c0.202-0.101,0.345-0.242,0.43-0.422c0.148-0.351,0.223-0.706,0.223-1.066l-0.032-1.21
			l0.015-1.113l-0.032-1.306c0-0.542,0.017-1.218,0.049-2.03c0.03-0.812,0.047-1.245,0.047-1.298v-4.346
			c0-0.69,0.015-1.437,0.047-2.236c0.032-0.801,0.047-1.357,0.047-1.664c0-0.914-0.021-1.443-0.062-1.592
			c-0.043-0.149-0.123-0.254-0.239-0.318c-0.117-0.065-0.498-0.123-1.145-0.176c-0.499-0.043-0.844-0.08-1.035-0.111
			c-0.052-0.118-0.08-0.211-0.08-0.287c0-0.084,0.005-0.185,0.015-0.302c0.255-0.021,0.451-0.032,0.59-0.032l1.496,0.017
			c1.061,0,2.183-0.044,3.372-0.128c0.583-0.042,1.463-0.08,2.641-0.112c0.021,0.096,0.031,0.187,0.031,0.271
			c0,0.105-0.024,0.188-0.072,0.246c-0.048,0.059-0.13,0.098-0.246,0.119c-1.391,0.117-2.208,0.289-2.458,0.517
			c-0.248,0.229-0.374,0.809-0.374,1.743c0,1.717,0.026,3.49,0.079,5.312l0.064,1.497c0.054,0.042,0.741,0.094,2.068,0.159
			c0.36,0.021,0.572,0.031,0.636,0.031l2.338-0.031l1.543,0.047l4.041-0.126c0.499-0.011,0.802-0.032,0.908-0.064
			c0.062-1.838,0.094-3.619,0.094-5.344c0-1.658-0.036-2.635-0.111-2.932c-0.043-0.18-0.118-0.301-0.223-0.363
			c-0.063-0.033-0.616-0.117-1.654-0.254c-0.181-0.023-0.351-0.049-0.509-0.08c-0.053-0.163-0.08-0.348-0.08-0.555
			c0.36-0.053,0.589-0.082,0.684-0.082l1.049,0.056c0.966,0.047,1.936,0.072,2.912,0.072c0.627,0,1.666-0.053,3.119-0.159
			c-0.011,0.212-0.039,0.402-0.08,0.572c-0.404,0.159-0.886,0.26-1.448,0.303c-0.36,0.021-0.663,0.08-0.906,0.174
			c-0.202,0.15-0.301,0.453-0.301,0.908c0,0.107,0.004,0.221,0.015,0.35c0.009,0.381,0.017,0.63,0.017,0.747v1.829l0.015,1.146
			l-0.031,1.479l0.017,2.768l-0.032,2.609c0,0.52,0.015,1.332,0.046,2.436l-0.015,2.146c0,0.722,0.062,1.235,0.19,1.543
			c0.063,0.149,0.169,0.254,0.318,0.318l1.289,0.287c0.636,0.159,1.015,0.289,1.137,0.389c0.122,0.101,0.183,0.221,0.183,0.359
			l-0.047,0.19l-0.08,0.017c-0.054,0-0.122-0.012-0.206-0.033c-1.157-0.211-2.372-0.318-3.644-0.318
			c-0.996,0-1.705,0.016-2.124,0.047c-0.419,0.032-1.29,0.149-2.616,0.351c-0.021-0.139-0.032-0.24-0.032-0.303
			c0-0.075,0.012-0.176,0.032-0.303c0.328-0.191,0.849-0.323,1.559-0.396c0.53-0.053,0.949-0.225,1.257-0.51
			c0.202-0.191,0.302-0.471,0.302-0.843l-0.015-2.291c0.032-0.688,0.047-1.066,0.047-1.129c0-0.9-0.015-2.216-0.047-3.945
			c-0.033-0.149-0.09-0.239-0.175-0.269c-0.286-0.097-1.696-0.075-4.232,0.062c-0.509,0.032-0.89,0.049-1.145,0.049
			s-0.788-0.014-1.599-0.041c-0.812-0.026-1.562-0.04-2.251-0.04c-0.371,0-0.685,0.004-0.938,0.016
			c-0.488,0.012-0.759,0.016-0.812,0.016c-0.244,0-0.412,0.049-0.502,0.143c-0.089,0.097-0.135,0.271-0.135,0.525l0.017,1.115
			c0,0.18-0.027,1.182-0.08,3.006c-0.012,0.371-0.017,0.677-0.017,0.921c0,1.453,0.053,2.418,0.159,2.896
			c0.054,0.222,0.15,0.375,0.287,0.461c0.095,0.062,0.51,0.174,1.242,0.334c0.486,0.107,0.858,0.207,1.113,0.303l0.095,0.159
			c0,0.053-0.022,0.097-0.063,0.126c-0.064,0.055-0.155,0.08-0.27,0.08c-0.087,0-0.187-0.002-0.304-0.007
			c-0.116-0.006-0.345-0.014-0.684-0.023c-0.541-0.012-1.214-0.05-2.02-0.112c-0.519-0.043-0.981-0.064-1.384-0.064
			c-0.679,0-1.766,0.037-3.261,0.108C-35.622-4.676-35.865-4.67-36.067-4.67z"/>
		<linearGradient id="SVGID_41_" gradientUnits="userSpaceOnUse" x1="-0.4238" y1="-34.6372" x2="-0.4238" y2="-2.2382">
			<stop  offset="0" style="stop-color:#CCDC7C"/>
			<stop  offset="1" style="stop-color:#95C11F"/>
		</linearGradient>
		<path fill="url(#SVGID_41_)" d="M-11.624-15.088c0-1.082,0.13-2.045,0.39-2.888c0.261-0.844,0.697-1.758,1.313-2.746
			c0.615-0.985,1.358-1.809,2.228-2.473c0.868-0.663,2.072-1.249,3.61-1.758c1.082-0.349,2.449-0.524,4.104-0.524
			c1.113,0,2.203,0.149,3.269,0.445c1.065,0.297,2.034,0.711,2.903,1.242c0.87,0.53,1.739,1.346,2.609,2.449
			c0.605,0.764,1.061,1.585,1.367,2.466c0.404,1.155,0.605,2.35,0.605,3.578c0,1.4-0.135,2.562-0.406,3.483
			C10.1-10.89,9.646-9.977,9.01-9.076c-0.499,0.7-1.353,1.508-2.562,2.419c-0.806,0.614-1.807,1.11-3.006,1.485
			C2.243-4.793,0.95-4.606-0.44-4.606c-1.41,0-2.667-0.164-3.77-0.492c-1.103-0.33-2.023-0.729-2.759-1.203
			c-0.738-0.471-1.497-1.168-2.275-2.092c-0.779-0.921-1.371-1.939-1.774-3.054C-11.421-12.56-11.624-13.772-11.624-15.088z
			 M-0.583-5.195c0.891,0,1.815-0.124,2.776-0.372c0.96-0.25,1.811-0.664,2.554-1.242c0.742-0.578,1.322-1.236,1.741-1.972
			c0.419-0.738,0.756-1.685,1.011-2.84c0.254-1.156,0.381-2.311,0.381-3.468c0-1.443-0.212-2.869-0.636-4.281
			c-0.328-1.07-0.864-2.027-1.606-2.871C4.894-23.083,4-23.734,2.949-24.197c-1.05-0.459-2.169-0.691-3.357-0.691
			c-0.964,0-1.908,0.159-2.83,0.478c-0.923,0.317-1.682,0.724-2.276,1.216c-0.595,0.495-1.145,1.193-1.655,2.101
			c-0.508,0.907-0.896,1.905-1.16,2.997c-0.265,1.095-0.398,2.058-0.398,2.897c0,0.879,0.133,1.875,0.398,2.989
			c0.263,1.115,0.627,2.08,1.089,2.897c0.462,0.817,1.028,1.541,1.702,2.171s1.43,1.113,2.267,1.447
			C-2.434-5.361-1.537-5.195-0.583-5.195z"/>
		<linearGradient id="SVGID_42_" gradientUnits="userSpaceOnUse" x1="22.1104" y1="-34.6382" x2="22.1103" y2="-2.238">
			<stop  offset="0" style="stop-color:#CCDC7C"/>
			<stop  offset="1" style="stop-color:#95C11F"/>
		</linearGradient>
		<path fill="url(#SVGID_42_)" d="M12.907-22.9l0.652-2.401c0.042-0.319,0.1-0.522,0.175-0.612c0.074-0.091,0.16-0.137,0.253-0.137
			c0.193,0,0.41,0.229,0.653,0.685c0.181,0.329,0.329,0.539,0.446,0.629c0.116,0.088,0.287,0.15,0.509,0.182l0.159-0.016
			l0.685,0.063l3.754,0.046l4.438-0.014h1.304l2.466-0.047c0.105,0,0.238,0.012,0.397,0.031c0.721,0.062,1.167,0.096,1.336,0.096
			c0.159,0,0.287-0.051,0.382-0.157c0.032-0.041,0.208-0.392,0.526-1.05c0.138-0.297,0.306-0.449,0.508-0.449
			c0.085,0,0.19,0.023,0.318,0.064c0.054,0.211,0.08,0.399,0.08,0.569l-0.017,0.632l0.017,1.342c0,0.325-0.026,1.379-0.08,3.155
			c0,0.117-0.021,0.222-0.064,0.316c-0.116,0.074-0.217,0.111-0.301,0.111s-0.159-0.039-0.222-0.119
			c-0.065-0.078-0.145-0.322-0.239-0.733c-0.213-0.946-0.477-1.623-0.795-2.033c-0.214-0.263-0.518-0.453-0.915-0.57
			c-0.398-0.115-1.35-0.172-2.856-0.172c-1.209,0-2.105,0-2.689,0c-0.021,0.424-0.031,0.812-0.031,1.164l0.127,9.885
			c0,0.395-0.021,1.137-0.064,2.23l0.016,2.117L23.82-6.914c0,0.372,0.064,0.638,0.19,0.796c0.128,0.159,0.473,0.313,1.034,0.461
			c0.976,0.245,1.629,0.394,1.957,0.445c0.202,0.021,0.366,0.064,0.494,0.127v0.478l-2.259-0.056c-1.241-0.01-2.173-0.033-2.8-0.07
			L20.113-4.62l-1.702,0.093c-0.477,0-0.77-0.009-0.875-0.032l-0.222-0.094c0.022-0.244,0.068-0.401,0.143-0.469
			c0.075-0.07,0.271-0.126,0.588-0.169c0.446-0.062,0.971-0.176,1.576-0.34c0.604-0.166,1.003-0.332,1.193-0.501
			c0.105-0.096,0.181-0.255,0.222-0.478c0.097-0.466,0.145-1.386,0.145-2.751v-2.705l-0.065-5.902l-0.063-1.272l-0.016-4.248
			c-0.668,0-1.521,0-2.56,0c-1.528,0-2.456,0.092-2.784,0.277c-0.521,0.289-1.294,1.132-2.323,2.53
			c-0.339,0.527-0.637,0.789-0.892,0.789l-0.142-0.033c-0.041-0.063-0.063-0.122-0.063-0.174c0-0.127,0.085-0.51,0.254-1.145
			C12.737-22.062,12.865-22.613,12.907-22.9z"/>
		<linearGradient id="SVGID_43_" gradientUnits="userSpaceOnUse" x1="45.0576" y1="-34.6372" x2="45.0576" y2="-2.2382">
			<stop  offset="0" style="stop-color:#CCDC7C"/>
			<stop  offset="1" style="stop-color:#95C11F"/>
		</linearGradient>
		<path fill="url(#SVGID_43_)" d="M33.858-15.088c0-1.082,0.13-2.045,0.391-2.888c0.259-0.844,0.697-1.758,1.313-2.746
			c0.614-0.985,1.356-1.809,2.227-2.473c0.869-0.663,2.073-1.249,3.611-1.758c1.082-0.349,2.449-0.524,4.104-0.524
			c1.113,0,2.203,0.149,3.268,0.445c1.065,0.297,2.034,0.711,2.903,1.242c0.87,0.53,1.74,1.346,2.61,2.449
			c0.604,0.764,1.061,1.585,1.367,2.466c0.405,1.155,0.605,2.35,0.605,3.578c0,1.4-0.135,2.562-0.405,3.483
			c-0.271,0.923-0.724,1.836-1.36,2.737c-0.499,0.7-1.352,1.508-2.562,2.419c-0.806,0.614-1.808,1.11-3.006,1.485
			c-1.199,0.378-2.492,0.565-3.881,0.565c-1.411,0-2.667-0.164-3.771-0.492c-1.104-0.33-2.022-0.729-2.76-1.203
			c-0.738-0.471-1.496-1.168-2.275-2.092c-0.778-0.921-1.371-1.939-1.774-3.054C34.061-12.56,33.858-13.772,33.858-15.088z
			 M44.899-5.195c0.891,0,1.816-0.124,2.775-0.372c0.961-0.25,1.812-0.664,2.554-1.242c0.743-0.578,1.324-1.236,1.742-1.972
			c0.419-0.738,0.756-1.685,1.011-2.84c0.253-1.156,0.381-2.311,0.381-3.468c0-1.443-0.212-2.869-0.636-4.281
			c-0.328-1.07-0.865-2.027-1.607-2.871c-0.743-0.843-1.638-1.494-2.688-1.957c-1.051-0.459-2.17-0.691-3.357-0.691
			c-0.965,0-1.91,0.159-2.832,0.478c-0.922,0.317-1.681,0.724-2.274,1.216c-0.595,0.495-1.146,1.193-1.656,2.101
			c-0.509,0.907-0.896,1.905-1.16,2.997c-0.265,1.095-0.398,2.058-0.398,2.897c0,0.879,0.133,1.875,0.398,2.989
			c0.264,1.115,0.627,2.08,1.089,2.897c0.461,0.817,1.028,1.541,1.703,2.171c0.672,0.631,1.429,1.113,2.265,1.447
			C43.048-5.361,43.944-5.195,44.899-5.195z"/>
		<linearGradient id="SVGID_44_" gradientUnits="userSpaceOnUse" x1="70.9082" y1="-34.6392" x2="70.9082" y2="-2.2382">
			<stop  offset="0" style="stop-color:#CCDC7C"/>
			<stop  offset="1" style="stop-color:#95C11F"/>
		</linearGradient>
		<path fill="url(#SVGID_44_)" d="M79.038-24.235l0.175,2.417c0.062,0.733,0.095,1.231,0.095,1.495l-0.445,0.08
			c-0.71-1.611-1.593-2.82-2.648-3.625c-1.056-0.807-2.347-1.209-3.874-1.209c-1.867,0-3.319,0.227-4.359,0.684
			c-1.505,0.646-2.794,1.771-3.865,3.371c-1.072,1.602-1.607,3.531-1.607,5.791c0,1.305,0.196,2.477,0.589,3.516
			c0.392,1.039,0.946,2.008,1.662,2.904c0.716,0.895,1.562,1.673,2.539,2.329c0.636,0.437,1.393,0.765,2.274,0.987
			c0.499,0.117,1.241,0.176,2.227,0.176c0.636,0,1.342-0.09,2.115-0.271c0.774-0.18,1.358-0.422,1.75-0.723
			c0.393-0.304,0.661-0.646,0.803-1.027c0.145-0.382,0.216-1.124,0.216-2.228c0-1.834-0.122-2.903-0.367-3.205
			c-0.245-0.302-1.012-0.501-2.306-0.597l-0.637-0.047l-0.429,0.015c-0.064-0.01-0.149-0.024-0.256-0.045l-0.238-0.398
			c0-0.054,0.036-0.122,0.111-0.207c0.552-0.084,1.75-0.128,3.596-0.128c0.413,0,1.087,0.012,2.021,0.033l1.639,0.064l1.479-0.017
			c0.285,0,0.63,0.012,1.035,0.032c0.073,0.012,0.121,0.029,0.143,0.056c0.021,0.026,0.031,0.073,0.031,0.135
			c0,0.117-0.027,0.267-0.079,0.445c-0.446,0.096-0.79,0.145-1.035,0.145l-1.034-0.016c-0.35,0-0.631,0.123-0.843,0.366
			c-0.106,0.115-0.16,0.513-0.16,1.193l0.017,2.082c0,1.433-0.058,2.345-0.175,2.738C79.133-6.695,79-6.486,78.798-6.301
			c-0.2,0.186-0.625,0.408-1.272,0.661c-0.922,0.371-1.76,0.621-2.513,0.748c-1.4,0.244-2.751,0.366-4.056,0.366
			c-2.102,0-3.822-0.267-5.163-0.803c-1.342-0.536-2.498-1.28-3.468-2.235c-0.972-0.953-1.663-1.919-2.076-2.896
			c-0.626-1.431-0.94-2.887-0.94-4.373c0-1.855,0.492-3.673,1.473-5.449c0.981-1.777,2.563-3.222,4.748-4.335
			c1.538-0.784,3.627-1.178,6.268-1.178c1.824,0,3.316,0.16,4.478,0.479C77.439-25,78.359-24.639,79.038-24.235z"/>
		<linearGradient id="SVGID_45_" gradientUnits="userSpaceOnUse" x1="93.7207" y1="-34.6382" x2="93.7207" y2="-2.2392">
			<stop  offset="0" style="stop-color:#CCDC7C"/>
			<stop  offset="1" style="stop-color:#95C11F"/>
		</linearGradient>
		<path fill="url(#SVGID_45_)" d="M83.84-5.417c1.542-0.18,2.413-0.307,2.614-0.381c0.136-0.052,0.262-0.211,0.38-0.477v-0.176
			c0-0.264,0.042-1.223,0.126-2.875c0.021-0.467,0.032-0.924,0.032-1.368l-0.049-1.89l0.032-2.147l-0.015-3.99l0.015-2.861
			c0.011-1.208-0.082-1.944-0.278-2.21c-0.196-0.264-0.703-0.452-1.518-0.563c-0.817-0.111-1.268-0.193-1.353-0.246
			c-0.085-0.053-0.126-0.137-0.126-0.256c0-0.074,0.014-0.168,0.047-0.285c0.104-0.096,0.35-0.15,0.731-0.159
			c0.054,0,0.2-0.015,0.438-0.041c0.239-0.027,0.463-0.039,0.676-0.039h1.304l4.184-0.049c2.364,0,4.022,0.175,4.972,0.527
			c0.948,0.349,1.705,0.94,2.267,1.772c0.562,0.832,0.844,1.763,0.844,2.792c0,1.952-1.024,3.442-3.067,4.469
			c-0.351,0.18-0.626,0.34-0.826,0.477c0.36,0.764,0.861,1.681,1.508,2.75l2.016,3.464c0.808,1.275,1.364,2.074,1.67,2.398
			c0.308,0.325,0.683,0.594,1.123,0.805c0.441,0.213,1.181,0.414,2.22,0.604c0.01,0.108,0.016,0.193,0.016,0.255
			c0,0.064-0.006,0.143-0.016,0.24c-1.453,0.021-3.155,0.03-5.106,0.03c-0.139,0-0.329-0.009-0.573-0.03
			c-0.753-1.445-1.639-3.033-2.656-4.764l-2.355-4.304c-0.318-0.445-0.58-0.725-0.788-0.835c-0.206-0.111-0.479-0.167-0.819-0.167
			l-1.353,0.015l-0.444-0.015c-0.033,0.34-0.048,1.034-0.048,2.083v5.44c-0.012,0.202,0.032,0.483,0.127,0.844
			c0.084,0.202,0.23,0.363,0.437,0.484c0.207,0.123,0.803,0.307,1.791,0.55l0.651,0.159c0.085,0.105,0.127,0.249,0.127,0.43
			c-0.286,0.053-0.488,0.08-0.604,0.08c-0.954,0-1.625-0.011-2.016-0.032c-0.202-0.012-0.367-0.016-0.493-0.016l-2.159,0.031
			l-2.112-0.015c-0.097,0-0.578,0.015-1.444,0.048L83.65-4.924l-0.031-0.16C83.619-5.178,83.693-5.291,83.84-5.417z M89.744-15.821
			c0.287,0.012,0.499,0.016,0.636,0.016c0.765,0,1.644-0.089,2.64-0.27c0.701-0.139,1.268-0.363,1.704-0.675
			c0.434-0.313,0.797-0.776,1.089-1.389c0.292-0.615,0.438-1.25,0.438-1.906c0-0.719-0.229-1.48-0.685-2.286
			c-0.35-0.615-0.94-1.128-1.772-1.541c-0.833-0.413-1.833-0.619-3-0.619c-0.285,0-0.657,0.016-1.113,0.047
			c-0.042,0.551-0.062,0.973-0.062,1.27l0.08,2.97l-0.017,1.223C89.679-18.156,89.701-17.101,89.744-15.821z"/>
		<linearGradient id="SVGID_46_" gradientUnits="userSpaceOnUse" x1="116.6689" y1="-34.6377" x2="116.6689" y2="-2.2381">
			<stop  offset="0" style="stop-color:#CCDC7C"/>
			<stop  offset="1" style="stop-color:#95C11F"/>
		</linearGradient>
		<path fill="url(#SVGID_46_)" d="M105.708-5.434c0.149-0.084,0.281-0.127,0.398-0.127h0.366c0.074,0,0.2-0.004,0.381-0.015
			c0.817-0.073,1.299-0.149,1.447-0.223c0.371-0.201,0.689-0.551,0.955-1.049c0.551-1.082,1.171-2.615,1.861-4.599
			c0.328-0.943,0.536-1.516,0.62-1.717c0.265-0.637,0.521-1.304,0.764-2.004l1.496-4.186c0.234-0.657,0.795-2.163,1.687-4.516
			c0.221-0.596,0.491-1.391,0.812-2.387l0.467-0.033l0.556,0.017c0.457,0.9,0.858,1.872,1.21,2.91
			c0.189,0.551,0.502,1.374,0.937,2.466l2.414,6.536l1.287,3.548c0.68,2.016,1.125,3.254,1.336,3.715
			c0.213,0.462,0.41,0.767,0.589,0.916c0.053,0.043,0.252,0.106,0.596,0.191c0.346,0.084,0.588,0.147,0.725,0.19
			c0.487,0.138,0.828,0.255,1.017,0.349c0.043,0.118,0.066,0.208,0.066,0.272c0,0.053-0.018,0.133-0.049,0.238
			c-0.34,0.01-0.578,0.016-0.717,0.016c-0.54,0-1.495-0.016-2.863-0.048l-1.59-0.035l-1.925,0.023c-0.129,0-0.257-0.006-0.391-0.018
			c-0.131-0.012-0.245-0.018-0.342-0.018h-0.351c-0.116-0.012-0.222-0.042-0.318-0.096c0-0.147,0.028-0.291,0.081-0.428
			c0.127-0.064,0.245-0.101,0.351-0.111l1.67-0.113c0.434-0.02,0.762-0.08,0.984-0.174c0.066-0.193,0.096-0.335,0.096-0.431
			c0-0.19-0.137-0.686-0.414-1.482c-0.19-0.532-0.356-1.036-0.5-1.514c-0.144-0.478-0.707-2.051-1.692-4.717
			c-0.435-0.076-0.815-0.113-1.144-0.113l-3.406,0.033l-1.002-0.017c-0.358,0-0.756,0.027-1.193,0.08
			c-0.136,0.319-0.229,0.547-0.27,0.685l-1.401,4.375c-0.594,1.664-0.892,2.58-0.892,2.752c0,0.094,0.048,0.252,0.143,0.477
			c0.223,0.063,0.521,0.121,0.891,0.174l2.165,0.19c0.117,0.096,0.173,0.18,0.173,0.255c0,0.054-0.015,0.134-0.047,0.24
			c-0.477,0.012-0.843,0.016-1.097,0.016c-0.849,0-1.835-0.027-2.96-0.08c-0.519-0.021-0.89-0.032-1.113-0.032
			c-0.222,0-0.61,0.012-1.16,0.032c-0.361,0.021-0.621,0.032-0.78,0.032c-0.254,0-0.583-0.017-0.986-0.048v-0.096
			C105.644-5.204,105.666-5.305,105.708-5.434z M113.3-14.977c1.132,0.063,2.427,0.096,3.878,0.096c0.829,0,1.556-0.027,2.179-0.08
			c-0.106-0.415-0.227-0.801-0.363-1.162c-0.689-1.845-1.071-2.862-1.145-3.052l-1.446-3.672l-0.159-0.287
			c-0.063,0.127-0.298,0.672-0.699,1.636c-0.682,1.655-1.169,2.941-1.467,3.866c-0.139,0.412-0.28,0.822-0.431,1.232
			c-0.148,0.408-0.239,0.694-0.278,0.858c-0.037,0.164-0.093,0.331-0.167,0.501L113.3-14.977z"/>
		<linearGradient id="SVGID_47_" gradientUnits="userSpaceOnUse" x1="138.2764" y1="-34.6362" x2="138.2764" y2="-2.2383">
			<stop  offset="0" style="stop-color:#CCDC7C"/>
			<stop  offset="1" style="stop-color:#95C11F"/>
		</linearGradient>
		<path fill="url(#SVGID_47_)" d="M129.938-25.222c0.192-0.032,0.313-0.047,0.366-0.047c0.36,0,0.955,0.021,1.783,0.062
			c0.433,0.011,0.731,0.017,0.891,0.017c0.232,0,0.725-0.023,1.48-0.064l2.704-0.16c0.71-0.063,1.539-0.093,2.48-0.093
			c1.667,0,2.992,0.235,3.977,0.705c0.988,0.471,1.748,1.211,2.283,2.217c0.537,1.005,0.806,2.007,0.806,3.002
			c0,1.665-0.583,3.099-1.751,4.306c-1.166,1.207-2.737,1.812-4.708,1.812c-0.554,0-1.013-0.056-1.384-0.167
			s-0.795-0.328-1.273-0.646c-0.203-0.137-0.323-0.279-0.366-0.429c0.043-0.073,0.1-0.126,0.175-0.16
			c0.148,0,0.303,0.033,0.463,0.096c0.361,0.128,0.815,0.191,1.369,0.191c0.834,0,1.629-0.205,2.375-0.62
			c0.75-0.413,1.313-1,1.694-1.763c0.383-0.762,0.573-1.566,0.573-2.414c0-0.824-0.199-1.626-0.604-2.406
			c-0.402-0.777-0.932-1.4-1.586-1.866c-0.371-0.265-0.939-0.488-1.706-0.666c-0.769-0.181-1.365-0.271-1.788-0.271
			c-1.311,0-2.091,0.096-2.334,0.285l-0.014,0.223l0.047,1.797l-0.017,0.317c-0.021,0.287-0.03,0.726-0.03,1.319
			c0,2.162,0.03,3.508,0.096,4.039v0.891l0.204,7.263c0,0.105-0.012,0.302-0.038,0.589c-0.028,0.286-0.04,0.534-0.04,0.747
			c0,0.507,0.042,0.894,0.126,1.16c0.254,0.073,0.997,0.249,2.227,0.523c0.572,0.139,0.886,0.218,0.939,0.239
			c0.085,0.032,0.159,0.101,0.223,0.208c-0.043,0.158-0.1,0.262-0.168,0.311c-0.068,0.047-0.204,0.07-0.405,0.07
			c-0.126,0-0.425-0.026-0.89-0.08c-0.914-0.094-1.627-0.143-2.148-0.143l-2.801,0.112L131.5-4.766
			c-0.107,0-0.416,0.012-0.925,0.033l-0.015-0.414l2.068-0.397c0.341-0.095,0.545-0.191,0.621-0.287
			c0.106-0.148,0.158-0.439,0.158-0.873c0-0.095,0.006-0.302,0.017-0.621c0.01-0.222,0.014-0.53,0.014-0.921
			c0-1.25-0.053-3.914-0.159-7.996c-0.041-1.906-0.062-3.844-0.062-5.818v-0.27c0-0.762-0.116-1.244-0.348-1.445
			c-0.394-0.35-1.374-0.635-2.945-0.858c-0.053-0.117-0.079-0.212-0.079-0.287C129.845-25.005,129.875-25.105,129.938-25.222z"/>
		<linearGradient id="SVGID_48_" gradientUnits="userSpaceOnUse" x1="161.1313" y1="-34.6382" x2="161.1313" y2="-2.2385">
			<stop  offset="0" style="stop-color:#CCDC7C"/>
			<stop  offset="1" style="stop-color:#95C11F"/>
		</linearGradient>
		<path fill="url(#SVGID_48_)" d="M149.478-4.67l0.017-0.349c0.358-0.202,0.778-0.329,1.256-0.381
			c0.754-0.096,1.231-0.195,1.43-0.295c0.203-0.101,0.346-0.242,0.433-0.422c0.145-0.351,0.221-0.706,0.221-1.066l-0.033-1.21
			l0.016-1.113l-0.03-1.306c0-0.542,0.015-1.218,0.048-2.03c0.031-0.812,0.048-1.245,0.048-1.298v-4.346
			c0-0.69,0.016-1.437,0.048-2.236c0.031-0.801,0.046-1.357,0.046-1.664c0-0.914-0.021-1.443-0.064-1.592
			c-0.042-0.149-0.121-0.254-0.236-0.318c-0.119-0.065-0.5-0.123-1.147-0.176c-0.498-0.043-0.843-0.08-1.033-0.111
			c-0.054-0.118-0.081-0.211-0.081-0.287c0-0.084,0.006-0.185,0.015-0.302c0.255-0.021,0.453-0.032,0.591-0.032l1.495,0.017
			c1.06,0,2.185-0.044,3.37-0.128c0.584-0.042,1.464-0.08,2.642-0.112c0.023,0.096,0.032,0.187,0.032,0.271
			c0,0.105-0.025,0.188-0.072,0.246c-0.049,0.059-0.129,0.098-0.246,0.119c-1.39,0.117-2.208,0.289-2.459,0.517
			c-0.247,0.229-0.373,0.809-0.373,1.743c0,1.717,0.027,3.49,0.08,5.312l0.064,1.497c0.053,0.042,0.743,0.094,2.066,0.159
			c0.362,0.021,0.575,0.031,0.639,0.031l2.338-0.031l1.544,0.047l4.038-0.126c0.501-0.011,0.804-0.032,0.909-0.064
			c0.062-1.838,0.094-3.619,0.094-5.344c0-1.658-0.035-2.635-0.111-2.932c-0.043-0.18-0.117-0.301-0.223-0.363
			c-0.063-0.033-0.616-0.117-1.655-0.254c-0.18-0.023-0.351-0.049-0.509-0.08c-0.054-0.163-0.08-0.348-0.08-0.555
			c0.36-0.053,0.589-0.082,0.685-0.082l1.049,0.056c0.967,0.047,1.937,0.072,2.911,0.072c0.628,0,1.669-0.053,3.119-0.159
			c-0.008,0.212-0.038,0.402-0.077,0.572c-0.406,0.159-0.887,0.26-1.451,0.303c-0.359,0.021-0.66,0.08-0.906,0.174
			c-0.203,0.15-0.301,0.453-0.301,0.908c0,0.107,0.006,0.221,0.016,0.35c0.009,0.381,0.015,0.63,0.015,0.747v1.829l0.016,1.146
			l-0.031,1.479l0.015,2.768l-0.031,2.609c0,0.52,0.016,1.332,0.047,2.436l-0.016,2.146c0,0.722,0.062,1.235,0.191,1.543
			c0.063,0.149,0.168,0.254,0.318,0.318l1.287,0.287c0.637,0.159,1.016,0.289,1.139,0.389c0.122,0.101,0.184,0.221,0.184,0.359
			l-0.049,0.19l-0.078,0.017c-0.057,0-0.125-0.012-0.207-0.033c-1.157-0.211-2.372-0.318-3.645-0.318
			c-0.997,0-1.704,0.016-2.124,0.047c-0.419,0.032-1.291,0.149-2.615,0.351c-0.023-0.139-0.033-0.24-0.033-0.303
			c0-0.075,0.01-0.176,0.033-0.303c0.328-0.191,0.848-0.323,1.557-0.396c0.531-0.053,0.949-0.225,1.257-0.51
			c0.199-0.191,0.301-0.471,0.301-0.843l-0.014-2.291c0.032-0.688,0.047-1.066,0.047-1.129c0-0.9-0.015-2.216-0.047-3.945
			c-0.033-0.149-0.092-0.239-0.176-0.269c-0.287-0.097-1.697-0.075-4.23,0.062c-0.512,0.032-0.894,0.049-1.147,0.049
			c-0.253,0-0.786-0.014-1.598-0.041s-1.562-0.04-2.25-0.04c-0.373,0-0.685,0.004-0.94,0.016c-0.487,0.012-0.756,0.016-0.812,0.016
			c-0.244,0-0.41,0.049-0.501,0.143c-0.088,0.097-0.135,0.271-0.135,0.525l0.016,1.115c0,0.18-0.025,1.182-0.077,3.006
			C155.304-9.5,155.3-9.193,155.3-8.949c0,1.453,0.054,2.418,0.159,2.896c0.053,0.222,0.149,0.375,0.287,0.461
			c0.095,0.062,0.507,0.174,1.241,0.334c0.487,0.107,0.857,0.207,1.113,0.303l0.096,0.159c0,0.053-0.023,0.097-0.063,0.126
			c-0.066,0.055-0.155,0.08-0.27,0.08c-0.087,0-0.188-0.002-0.305-0.007c-0.114-0.006-0.345-0.014-0.683-0.023
			c-0.541-0.012-1.216-0.05-2.021-0.112c-0.521-0.043-0.982-0.064-1.384-0.064c-0.68,0-1.768,0.037-3.263,0.108
			C149.925-4.676,149.679-4.67,149.478-4.67z"/>
		<linearGradient id="SVGID_49_" gradientUnits="userSpaceOnUse" x1="185.5854" y1="-34.6372" x2="185.5854" y2="-2.2375">
			<stop  offset="0" style="stop-color:#CCDC7C"/>
			<stop  offset="1" style="stop-color:#95C11F"/>
		</linearGradient>
		<path fill="url(#SVGID_49_)" d="M174.602-25.414h0.762c0.275,0,0.882,0.016,1.814,0.042c1.442,0.057,2.641,0.085,3.597,0.085
			l1.859-0.032c0.265,0,0.521,0.021,0.767,0.063c0.072,0.085,0.111,0.176,0.111,0.272v0.173l-0.402,0.19h-0.175l-0.896,0.017
			l-0.465-0.017c-0.363,0-0.656,0.079-0.879,0.238c-0.171,0.117-0.253,0.239-0.253,0.367c0,0.14,0.073,0.312,0.221,0.525
			c0.055,0.084,0.139,0.211,0.255,0.383c0.212,0.361,0.491,0.781,0.844,1.256c0.5,0.701,1.03,1.531,1.59,2.484
			c0.225,0.383,0.457,0.748,0.703,1.098l2.418,3.662c0.16-0.202,0.375-0.499,0.654-0.891l2.294-3.296l2.646-3.964
			c0.233-0.361,0.374-0.626,0.415-0.796c0.02-0.084,0.032-0.174,0.032-0.27c0-0.223-0.1-0.404-0.301-0.542
			c-0.329-0.222-1.041-0.386-2.133-0.494c-0.075-0.01-0.176-0.025-0.303-0.045c-0.072-0.129-0.111-0.234-0.111-0.319
			c0-0.064,0.005-0.133,0.015-0.208l0.828-0.016l2.99,0.08l2.402-0.048c0.066,0,0.287,0.007,0.668,0.016l-0.047,0.557
			c-0.073,0.023-0.19,0.039-0.349,0.048l-0.386,0.048c-0.063,0.01-0.164,0.022-0.3,0.032c-0.224,0.084-0.398,0.173-0.524,0.27
			c-1.562,1.645-2.886,3.199-3.977,4.662c-1.093,1.463-2.015,2.793-2.769,3.993c-0.243,0.393-0.44,0.684-0.59,0.875
			c-0.273,0.361-0.438,0.625-0.493,0.795c-0.114,0.414-0.172,1.041-0.172,1.881c0,3.304,0.058,5.253,0.172,5.848
			c0.064,0.298,0.151,0.478,0.256,0.542c0.275,0.137,1.373,0.304,3.293,0.494v0.188c0,0.124-0.038,0.273-0.111,0.449l-4.08-0.176
			l-2.725,0.143h-2.231c-0.212,0-0.447-0.004-0.702-0.016c-0.041-0.115-0.061-0.201-0.061-0.253c0-0.053,0.013-0.127,0.047-0.223
			c0.076-0.063,0.149-0.1,0.224-0.112l2.062-0.318c0.711-0.232,1.113-0.393,1.195-0.477c0.129-0.127,0.211-0.324,0.241-0.588
			c0.01-0.191,0.017-1.667,0.017-4.423c0-1.028-0.036-1.657-0.104-1.885c-0.07-0.229-0.295-0.629-0.676-1.202l-2.083-3.166
			l-3.548-5.17c-0.614-0.894-1.151-1.494-1.608-1.8c-0.199-0.136-0.704-0.242-1.508-0.315c-0.088,0-0.214-0.011-0.383-0.032
			L174.602-25.414z"/>
	</g>
	<line display="inline" fill="none" stroke="#A2E0F0" stroke-miterlimit="10" x1="-62.317" y1="2.833" x2="196.883" y2="2.833"/>
	<g display="inline">
		<rect x="-59.416" y="8.004" fill="#DFF1F9" width="5.171" height="5.172"/>
		<rect x="-49.073" y="8.004" fill="#DFF1F9" width="5.171" height="5.172"/>
		<rect x="-38.73" y="8.004" fill="#DFF1F9" width="5.172" height="5.172"/>
		<rect x="-28.387" y="8.004" fill="#DFF1F9" width="5.171" height="5.172"/>
		<rect x="-18.045" y="8.004" fill="#DFF1F9" width="5.171" height="5.172"/>
		<rect x="-7.702" y="8.004" fill="#DFF1F9" width="5.172" height="5.172"/>
		<rect x="2.641" y="8.004" fill="#DFF1F9" width="5.171" height="5.172"/>
		<rect x="12.983" y="8.004" fill="#DFF1F9" width="5.172" height="5.172"/>
		<rect x="23.326" y="8.004" fill="#DFF1F9" width="5.172" height="5.172"/>
		<rect x="33.669" y="8.004" fill="#DFF1F9" width="5.171" height="5.172"/>
		<rect x="44.012" y="8.004" fill="#DFF1F9" width="5.172" height="5.172"/>
		<rect x="54.354" y="8.004" fill="#DFF1F9" width="5.172" height="5.172"/>
		<rect x="64.697" y="8.004" fill="#DFF1F9" width="5.171" height="5.172"/>
		<rect x="75.04" y="8.004" fill="#DFF1F9" width="5.172" height="5.172"/>
		<rect x="85.383" y="8.004" fill="#DFF1F9" width="5.172" height="5.172"/>
		<rect x="95.726" y="8.004" fill="#DFF1F9" width="5.171" height="5.172"/>
		<rect x="106.068" y="8.004" fill="#DFF1F9" width="5.172" height="5.172"/>
		<rect x="116.413" y="8.004" fill="#DFF1F9" width="5.17" height="5.172"/>
		<rect x="126.754" y="8.004" fill="#DFF1F9" width="5.171" height="5.172"/>
		<rect x="137.097" y="8.004" fill="#DFF1F9" width="5.172" height="5.172"/>
		<rect x="147.439" y="8.004" fill="#DFF1F9" width="5.173" height="5.172"/>
		<rect x="157.782" y="8.004" fill="#DFF1F9" width="5.172" height="5.172"/>
		<rect x="168.125" y="8.004" fill="#DFF1F9" width="5.174" height="5.172"/>
		<rect x="178.468" y="8.004" fill="#DFF1F9" width="5.171" height="5.172"/>
		<rect x="188.811" y="8.004" fill="#DFF1F9" width="5.172" height="5.172"/>
	</g>
	<g display="inline">
		
			<linearGradient id="SVGID_50_" gradientUnits="userSpaceOnUse" x1="44.5898" y1="-51.3477" x2="44.5898" y2="-105.3641" gradientTransform="matrix(1.8519 0 0 1.8519 -56.9638 40.2423)">
			<stop  offset="0" style="stop-color:#EA560D"/>
			<stop  offset="1" style="stop-color:#9E3A09"/>
		</linearGradient>
		<path fill="url(#SVGID_50_)" d="M42.087-105.625v6.536H30.359h-1.2v1.201v56.14h-7.094v-56.14v-1.201h-1.2H9.136v-6.536H42.087
			 M43.287-106.824H7.936v8.937h12.929v57.34h9.494v-57.34h12.928V-106.824L43.287-106.824z"/>
		
			<linearGradient id="SVGID_51_" gradientUnits="userSpaceOnUse" x1="68.4878" y1="-51.3477" x2="68.4878" y2="-105.3641" gradientTransform="matrix(1.8519 0 0 1.8519 -56.9638 40.2423)">
			<stop  offset="0" style="stop-color:#EA560D"/>
			<stop  offset="1" style="stop-color:#9E3A09"/>
		</linearGradient>
		<path fill="url(#SVGID_51_)" d="M90.078-105.625v63.876h-7.094v-39.105v-1.199h-1.201h-0.187h-0.867l-0.272,0.824L71.328-53.57
			h-3.01l-9.037-27.656l-0.271-0.827h-0.87h-0.187h-1.2v1.199v39.105h-7.095v-63.876h7.069l11.915,34.287l0.28,0.807h0.853h0.186
			h0.855l0.279-0.809l11.822-34.285H90.078 M91.278-106.824h-9.215L69.961-71.731h-0.186l-12.195-35.093h-9.122v66.277h9.495
			v-40.306h0.187l9.308,28.484h4.748l9.401-28.484h0.187v40.306h9.495V-106.824L91.278-106.824z"/>
		
			<linearGradient id="SVGID_52_" gradientUnits="userSpaceOnUse" x1="91.6885" y1="-51.3477" x2="91.6885" y2="-105.3641" gradientTransform="matrix(1.8519 0 0 1.8519 -56.9638 40.2423)">
			<stop  offset="0" style="stop-color:#EA560D"/>
			<stop  offset="1" style="stop-color:#9E3A09"/>
		</linearGradient>
		<path fill="url(#SVGID_52_)" d="M125.43-105.625v6.536h-16.901h-1.2v1.201v19.454v1.201h1.2h11.73v6.536h-11.73h-1.2v1.199v19.456
			v1.201h1.2h16.901v7.094h-25.195v-63.876H125.43 M126.63-106.824H99.036v66.277h27.595v-9.495h-18.102v-19.456h12.929v-8.936
			h-12.929v-19.454h18.102V-106.824L126.63-106.824z"/>
	</g>
</g>
</svg>
