<?xml version="1.0" encoding="utf-8"?>
<!-- Generator: Adobe Illustrator 16.0.0, SVG Export Plug-In . SVG Version: 6.00 Build 0)  -->
<!DOCTYPE svg PUBLIC "-//W3C//DTD SVG 1.1//EN" "http://www.w3.org/Graphics/SVG/1.1/DTD/svg11.dtd">
<svg version="1.1" xmlns="http://www.w3.org/2000/svg" xmlns:xlink="http://www.w3.org/1999/xlink" x="0px" y="0px" width="259.2px"
	 height="120px" viewBox="0 0 259.2 120" enable-background="new 0 0 259.2 120" xml:space="preserve">
<g id="foli-grey" display="none">
	<radialGradient id="SVGID_1_" cx="88.7524" cy="791.3896" r="103.0261" gradientUnits="userSpaceOnUse">
		<stop  offset="0" style="stop-color:#878787;stop-opacity:0.95"/>
		<stop  offset="1" style="stop-color:#575756;stop-opacity:0.95"/>
	</radialGradient>
	<polygon display="inline" fill="url(#SVGID_1_)" points="63.991,863.475 63.991,832.522 28.617,792.727 28.617,898.848 
		134.738,898.848 94.943,863.475 	"/>
	
		<radialGradient id="SVGID_2_" cx="72.4478" cy="556.3057" r="90.2194" gradientTransform="matrix(-1 0 0 1 384.3477 0)" gradientUnits="userSpaceOnUse">
		<stop  offset="0" style="stop-color:#878787;stop-opacity:0.95"/>
		<stop  offset="1" style="stop-color:#575756;stop-opacity:0.95"/>
	</radialGradient>
	<polygon display="inline" fill="url(#SVGID_2_)" points="311.605,615.859 280.653,615.859 240.858,580.486 346.979,580.486 
		346.979,686.606 311.605,646.811 	"/>
	<radialGradient id="SVGID_3_" cx="240.5635" cy="792.126" r="125.9096" gradientUnits="userSpaceOnUse">
		<stop  offset="0" style="stop-color:#878787;stop-opacity:0.95"/>
		<stop  offset="1" style="stop-color:#575756;stop-opacity:0.95"/>
	</radialGradient>
	<polygon display="inline" fill="url(#SVGID_3_)" points="311.605,863.475 280.653,863.475 240.858,898.848 346.979,898.848 
		346.979,792.727 311.605,832.522 	"/>
	
		<radialGradient id="SVGID_4_" cx="248.1362" cy="542.1562" r="180.8827" gradientTransform="matrix(-1 0 0 1 384.3477 0)" gradientUnits="userSpaceOnUse">
		<stop  offset="0" style="stop-color:#878787;stop-opacity:0.95"/>
		<stop  offset="1" style="stop-color:#575756;stop-opacity:0.95"/>
	</radialGradient>
	<polygon display="inline" fill="url(#SVGID_4_)" points="63.991,615.859 63.991,646.811 28.617,686.606 28.617,580.486 
		134.738,580.486 94.943,615.859 	"/>
	<radialGradient id="SVGID_5_" cx="197.5244" cy="793.3066" r="173.3324" gradientUnits="userSpaceOnUse">
		<stop  offset="0" style="stop-color:#9D9D9C"/>
		<stop  offset="1" style="stop-color:#575756"/>
	</radialGradient>
	<path display="inline" fill="url(#SVGID_5_)" d="M117.935,743.194v70.747v49.533h53.061v-49.533v-53.061
		c0-43.35,14.172-89.636,53.06-117.041v-63.354C157.861,605.15,122.274,661.326,117.935,743.194z"/>
	
		<radialGradient id="SVGID_6_" cx="192.8589" cy="726.0977" r="119.7948" gradientTransform="matrix(1.2058 0 0 1 -44.0386 0)" gradientUnits="userSpaceOnUse">
		<stop  offset="0" style="stop-color:#9D9D9C"/>
		<stop  offset="1" style="stop-color:#575756"/>
	</radialGradient>
	<path display="inline" fill="url(#SVGID_6_)" d="M224.055,612.322v-14.149c-63.853,19.731-98.184,64.672-102.37,130.167
		l1.449-0.061C131.146,670.484,164.934,630.592,224.055,612.322z"/>
	<path display="inline" fill="#575756" d="M117.935,813.941v49.533h53.061v-49.533v-17.688h17.687v-53.06h-16.864
		c3.513-37.751,18.741-75.488,52.237-99.194v-6.185C156.508,667.569,117.935,737.337,117.935,813.941z"/>
	<polygon display="inline" fill="#575756" points="37.461,817.932 37.461,890.004 121.252,890.004 111.302,881.161 42.767,881.161 	
		"/>
	<polygon display="inline" fill="#575756" points="329.291,830.312 329.291,881.161 264.292,881.161 254.343,890.004 
		266.062,890.004 338.135,890.004 338.135,832.08 338.135,820.363 	"/>
	<polygon display="inline" fill="#B2B2B2" points="332.276,589.329 260.203,589.329 332.276,595.547 	"/>
	<polygon display="inline" fill="#B2B2B2" points="37.461,589.329 109.534,589.329 37.461,595.547 	"/>
	<polyline display="inline" opacity="0.2" fill="#9D9D9C" points="346.979,580.486 240.858,580.486 272.684,608.775 
		346.979,603.469 	"/>
	<polyline display="inline" opacity="0.2" fill="#9D9D9C" points="94.943,615.859 63.991,615.859 63.991,633.547 28.617,644 
		28.617,580.486 134.738,580.486 	"/>
	<g display="inline">
		<g>
			<linearGradient id="SVGID_7_" gradientUnits="userSpaceOnUse" x1="-113.7163" y1="912.21" x2="-113.7163" y2="1099.8804">
				<stop  offset="0" style="stop-color:#878787"/>
				<stop  offset="1" style="stop-color:#575756"/>
			</linearGradient>
			<path fill="url(#SVGID_7_)" d="M-83.716,954.758v-0.09v-3.406v-14.414v-8v-10c-37.425,13.945-57.546,45.707-60,91.994v40v28.006
				h30v-28.006v-10h10v-30h-9.535C-111.265,989.498-102.656,968.162-83.716,954.758z"/>
		</g>
		<g>
			<linearGradient id="SVGID_8_" gradientUnits="userSpaceOnUse" x1="-58.5928" y1="912.209" x2="-58.5928" y2="1099.8801">
				<stop  offset="0" style="stop-color:#878787"/>
				<stop  offset="1" style="stop-color:#575756"/>
			</linearGradient>
			<path fill="url(#SVGID_8_)" d="M-58.593,1003.848c-22.091,0-40,17.909-40,40c0,22.092,17.909,40,40,40s40-17.908,40-40
				C-18.593,1021.757-36.501,1003.848-58.593,1003.848z M-58.593,1058.848c-8.284,0-15-6.715-15-15c0-8.284,6.716-15,15-15
				s15,6.716,15,15C-43.593,1052.133-50.309,1058.848-58.593,1058.848z"/>
		</g>
		<g>
			<linearGradient id="SVGID_9_" gradientUnits="userSpaceOnUse" x1="192.3379" y1="912.209" x2="192.3379" y2="1099.8801">
				<stop  offset="0" style="stop-color:#878787"/>
				<stop  offset="1" style="stop-color:#575756"/>
			</linearGradient>
			<path fill="url(#SVGID_9_)" d="M192.338,1003.848c-22.091,0-40,17.909-40,40c0,22.092,17.909,40,40,40s40-17.908,40-40
				C232.338,1021.757,214.429,1003.848,192.338,1003.848z M192.338,1058.848c-8.284,0-15-6.715-15-15c0-8.284,6.716-15,15-15
				s15,6.716,15,15C207.338,1052.133,200.622,1058.848,192.338,1058.848z"/>
		</g>
		<g>
			<linearGradient id="SVGID_10_" gradientUnits="userSpaceOnUse" x1="479.7715" y1="912.209" x2="479.7715" y2="1099.8801">
				<stop  offset="0" style="stop-color:#878787"/>
				<stop  offset="1" style="stop-color:#575756"/>
			</linearGradient>
			<path fill="url(#SVGID_10_)" d="M479.771,1003.848c-22.091,0-40,17.909-40,40c0,22.092,17.909,40,40,40s40-17.908,40-40
				C519.771,1021.757,501.862,1003.848,479.771,1003.848z M479.771,1058.848c-8.284,0-15-6.715-15-15c0-8.284,6.716-15,15-15
				s15,6.716,15,15C494.771,1052.133,488.056,1058.848,479.771,1058.848z"/>
		</g>
		<g>
			<linearGradient id="SVGID_11_" gradientUnits="userSpaceOnUse" x1="374.3047" y1="912.209" x2="374.3047" y2="1099.88">
				<stop  offset="0" style="stop-color:#878787"/>
				<stop  offset="1" style="stop-color:#575756"/>
			</linearGradient>
			<circle fill="url(#SVGID_11_)" cx="374.305" cy="1078.848" r="15"/>
		</g>
		<g>
			<linearGradient id="SVGID_12_" gradientUnits="userSpaceOnUse" x1="414.5381" y1="912.21" x2="414.5381" y2="1099.881">
				<stop  offset="0" style="stop-color:#878787"/>
				<stop  offset="1" style="stop-color:#575756"/>
			</linearGradient>
			<circle fill="url(#SVGID_12_)" cx="414.538" cy="986.309" r="15"/>
		</g>
		<g>
			<linearGradient id="SVGID_13_" gradientUnits="userSpaceOnUse" x1="42.1055" y1="912.21" x2="42.1055" y2="1099.881">
				<stop  offset="0" style="stop-color:#878787"/>
				<stop  offset="1" style="stop-color:#575756"/>
			</linearGradient>
			<circle fill="url(#SVGID_13_)" cx="42.105" cy="986.309" r="15"/>
		</g>
		<g>
			<linearGradient id="SVGID_14_" gradientUnits="userSpaceOnUse" x1="1.6401" y1="912.21" x2="1.6401" y2="1099.881">
				<stop  offset="0" style="stop-color:#878787"/>
				<stop  offset="1" style="stop-color:#575756"/>
			</linearGradient>
			<polygon fill="url(#SVGID_14_)" points="-13.593,918.848 -13.593,1083.848 16.873,1083.848 16.873,918.848 16.407,918.848 			"/>
		</g>
		<g>
			<linearGradient id="SVGID_15_" gradientUnits="userSpaceOnUse" x1="329.3047" y1="912.209" x2="329.3047" y2="1099.8799">
				<stop  offset="0" style="stop-color:#878787"/>
				<stop  offset="1" style="stop-color:#575756"/>
			</linearGradient>
			<polygon fill="url(#SVGID_15_)" points="339.771,972.836 339.305,972.836 309.305,972.836 309.305,1083.848 339.771,1083.848 
				339.771,1040.842 349.305,1040.842 349.305,1010.842 339.771,1010.842 			"/>
		</g>
		<g>
			<linearGradient id="SVGID_16_" gradientUnits="userSpaceOnUse" x1="107.3384" y1="912.209" x2="107.3384" y2="1099.8811">
				<stop  offset="0" style="stop-color:#878787"/>
				<stop  offset="1" style="stop-color:#575756"/>
			</linearGradient>
			<path fill="url(#SVGID_16_)" d="M107.338,1003.848c-18.664,0-30.206,4.287-40,6.995v111.012h30.466v-39.159
				c3.057,0.748,6.246,1.152,9.533,1.152c22.092,0,40-17.908,40-40C147.338,1021.757,129.43,1003.848,107.338,1003.848z
				 M107.338,1058.848c-8.283,0-15-6.715-15-15c0-8.284,6.717-15,15-15c8.285,0,15,6.716,15,15
				C122.338,1052.133,115.623,1058.848,107.338,1058.848z"/>
		</g>
		<g>
			<linearGradient id="SVGID_17_" gradientUnits="userSpaceOnUse" x1="42.1055" y1="912.2109" x2="42.1055" y2="1099.881">
				<stop  offset="0" style="stop-color:#878787"/>
				<stop  offset="1" style="stop-color:#575756"/>
			</linearGradient>
			<rect x="26.873" y="1010.843" fill="url(#SVGID_17_)" width="30.466" height="73.005"/>
		</g>
		<g>
			<linearGradient id="SVGID_18_" gradientUnits="userSpaceOnUse" x1="414.5381" y1="912.2109" x2="414.5381" y2="1099.881">
				<stop  offset="0" style="stop-color:#878787"/>
				<stop  offset="1" style="stop-color:#575756"/>
			</linearGradient>
			<rect x="399.305" y="1010.843" fill="url(#SVGID_18_)" width="30.467" height="73.005"/>
		</g>
		<g>
			<linearGradient id="SVGID_19_" gradientUnits="userSpaceOnUse" x1="270.8213" y1="912.209" x2="270.8213" y2="1099.8801">
				<stop  offset="0" style="stop-color:#878787"/>
				<stop  offset="1" style="stop-color:#575756"/>
			</linearGradient>
			<path fill="url(#SVGID_19_)" d="M237.338,1020.843v63.005h30.467v-51.582c2.592-2.135,5.912-3.418,9.533-3.418
				c3.485,0,6.686,1.199,9.232,3.194l17.734-17.734c-7.112-6.495-19.005-10.46-29.396-10.46
				C256.245,1003.848,245.743,1011.01,237.338,1020.843z"/>
		</g>
	</g>
</g>
<g id="foli-color" display="none">
	
		<radialGradient id="SVGID_20_" cx="152.6021" cy="110.0815" r="35.4287" gradientTransform="matrix(-1 0 0 1 384.3477 0)" gradientUnits="userSpaceOnUse">
		<stop  offset="0" style="stop-color:#F5ECC3"/>
		<stop  offset="1" style="stop-color:#E6D069"/>
	</radialGradient>
	<polygon display="inline" fill="url(#SVGID_20_)" points="230.529,119.892 219.094,119.892 204.392,106.824 243.597,106.824 
		243.597,146.028 230.529,131.327 	"/>
	
		<radialGradient id="SVGID_21_" cx="229.144" cy="109.2871" r="45.3485" gradientTransform="matrix(-1 0 0 1 384.3477 0)" gradientUnits="userSpaceOnUse">
		<stop  offset="0" style="stop-color:#F5ECC3"/>
		<stop  offset="1" style="stop-color:#E6D069"/>
	</radialGradient>
	<polygon display="inline" fill="url(#SVGID_21_)" points="139.051,119.892 139.051,131.327 125.983,146.028 125.983,106.824 
		165.188,106.824 150.486,119.892 	"/>
	<polyline display="inline" opacity="0.2" fill="#FFFFFF" points="243.597,106.824 204.392,106.824 216.149,117.275 
		243.597,115.314 	"/>
	<polyline display="inline" opacity="0.2" fill="#FFFFFF" points="150.486,119.892 139.051,119.892 139.051,126.426 
		125.983,130.288 125.983,106.824 165.188,106.824 	"/>
	<g display="inline">
		<g>
			<linearGradient id="SVGID_22_" gradientUnits="userSpaceOnUse" x1="73.3999" y1="230.2168" x2="73.3999" y2="288.9657">
				<stop  offset="0" style="stop-color:#E6D069"/>
				<stop  offset="1" style="stop-color:#D79B51"/>
			</linearGradient>
			<path fill="url(#SVGID_22_)" d="M84.483,245.093v-0.033v-1.258v-5.325v-2.956v-3.694c-13.827,5.152-21.26,16.885-22.167,33.986
				v14.777v10.347H73.4V280.59v-3.694h3.694v-11.083h-3.522C74.306,257.928,77.486,250.045,84.483,245.093z"/>
		</g>
		<g>
			<linearGradient id="SVGID_23_" gradientUnits="userSpaceOnUse" x1="93.7646" y1="230.2173" x2="93.7646" y2="288.9655">
				<stop  offset="0" style="stop-color:#E6D069"/>
				<stop  offset="1" style="stop-color:#D79B51"/>
			</linearGradient>
			<path fill="url(#SVGID_23_)" d="M93.765,263.229c-8.161,0-14.777,6.616-14.777,14.777s6.616,14.777,14.777,14.777
				s14.777-6.616,14.777-14.777S101.926,263.229,93.765,263.229z M93.765,283.548c-3.061,0-5.542-2.481-5.542-5.542
				s2.481-5.541,5.542-5.541s5.542,2.48,5.542,5.541S96.825,283.548,93.765,283.548z"/>
		</g>
		<g>
			<linearGradient id="SVGID_24_" gradientUnits="userSpaceOnUse" x1="186.4673" y1="230.2173" x2="186.4673" y2="288.9655">
				<stop  offset="0" style="stop-color:#E6D069"/>
				<stop  offset="1" style="stop-color:#D79B51"/>
			</linearGradient>
			<path fill="url(#SVGID_24_)" d="M186.467,263.229c-8.161,0-14.777,6.616-14.777,14.777s6.616,14.777,14.777,14.777
				s14.777-6.616,14.777-14.777S194.628,263.229,186.467,263.229z M186.467,283.548c-3.061,0-5.542-2.481-5.542-5.542
				s2.481-5.541,5.542-5.541s5.542,2.48,5.542,5.541S189.528,283.548,186.467,283.548z"/>
		</g>
		<g>
			<linearGradient id="SVGID_25_" gradientUnits="userSpaceOnUse" x1="288.9609" y1="230.2173" x2="288.9609" y2="288.9655">
				<stop  offset="0" style="stop-color:#E6D069"/>
				<stop  offset="1" style="stop-color:#D79B51"/>
			</linearGradient>
			<path fill="url(#SVGID_25_)" d="M288.961,263.229c-8.161,0-14.777,6.616-14.777,14.777s6.616,14.777,14.777,14.777
				s14.777-6.616,14.777-14.777S297.122,263.229,288.961,263.229z M288.961,283.548c-3.061,0-5.542-2.481-5.542-5.542
				s2.481-5.541,5.542-5.541s5.541,2.48,5.541,5.541S292.021,283.548,288.961,283.548z"/>
		</g>
		<g>
			<linearGradient id="SVGID_26_" gradientUnits="userSpaceOnUse" x1="249.9976" y1="230.2178" x2="249.9976" y2="288.9658">
				<stop  offset="0" style="stop-color:#E6D069"/>
				<stop  offset="1" style="stop-color:#D79B51"/>
			</linearGradient>
			<circle fill="url(#SVGID_26_)" cx="249.998" cy="289.089" r="5.542"/>
		</g>
		<g>
			<linearGradient id="SVGID_27_" gradientUnits="userSpaceOnUse" x1="264.8613" y1="230.2173" x2="264.8613" y2="288.9653">
				<stop  offset="0" style="stop-color:#E6D069"/>
				<stop  offset="1" style="stop-color:#D79B51"/>
			</linearGradient>
			<circle fill="url(#SVGID_27_)" cx="264.861" cy="256.749" r="5.542"/>
		</g>
		<g>
			<linearGradient id="SVGID_28_" gradientUnits="userSpaceOnUse" x1="130.9663" y1="230.2173" x2="130.9663" y2="288.9653">
				<stop  offset="0" style="stop-color:#E6D069"/>
				<stop  offset="1" style="stop-color:#D79B51"/>
			</linearGradient>
			<circle fill="url(#SVGID_28_)" cx="130.966" cy="256.749" r="5.542"/>
		</g>
		<g>
			<linearGradient id="SVGID_29_" gradientUnits="userSpaceOnUse" x1="116.0166" y1="230.2168" x2="116.0166" y2="288.9652">
				<stop  offset="0" style="stop-color:#E6D069"/>
				<stop  offset="1" style="stop-color:#D79B51"/>
			</linearGradient>
			<polygon fill="url(#SVGID_29_)" points="110.389,231.827 110.389,292.783 121.644,292.783 121.644,231.827 121.472,231.827 			
				"/>
		</g>
		<g>
			<linearGradient id="SVGID_30_" gradientUnits="userSpaceOnUse" x1="237.0674" y1="230.2168" x2="237.0674" y2="288.9653">
				<stop  offset="0" style="stop-color:#E6D069"/>
				<stop  offset="1" style="stop-color:#D79B51"/>
			</linearGradient>
			<polygon fill="url(#SVGID_30_)" points="240.934,251.771 240.762,251.771 229.679,251.771 229.679,292.783 240.934,292.783 
				240.934,276.896 244.456,276.896 244.456,265.812 240.934,265.812 			"/>
		</g>
		<g>
			<linearGradient id="SVGID_31_" gradientUnits="userSpaceOnUse" x1="155.0654" y1="230.2173" x2="155.0654" y2="288.9655">
				<stop  offset="0" style="stop-color:#E6D069"/>
				<stop  offset="1" style="stop-color:#D79B51"/>
			</linearGradient>
			<path fill="url(#SVGID_31_)" d="M155.065,263.229c-6.896,0-11.159,1.583-14.777,2.584v41.012h11.255v-14.467
				c1.129,0.276,2.307,0.426,3.522,0.426c8.161,0,14.777-6.616,14.777-14.777S163.227,263.229,155.065,263.229z M155.065,283.548
				c-3.061,0-5.542-2.481-5.542-5.542s2.481-5.541,5.542-5.541s5.542,2.48,5.542,5.541S158.126,283.548,155.065,283.548z"/>
		</g>
		<g>
			<linearGradient id="SVGID_32_" gradientUnits="userSpaceOnUse" x1="130.9663" y1="230.2173" x2="130.9663" y2="288.9654">
				<stop  offset="0" style="stop-color:#E6D069"/>
				<stop  offset="1" style="stop-color:#D79B51"/>
			</linearGradient>
			<rect x="125.338" y="265.812" fill="url(#SVGID_32_)" width="11.255" height="26.971"/>
		</g>
		<g>
			<linearGradient id="SVGID_33_" gradientUnits="userSpaceOnUse" x1="264.8613" y1="230.2173" x2="264.8613" y2="288.9654">
				<stop  offset="0" style="stop-color:#E6D069"/>
				<stop  offset="1" style="stop-color:#D79B51"/>
			</linearGradient>
			<rect x="259.233" y="265.812" fill="url(#SVGID_33_)" width="11.256" height="26.971"/>
		</g>
		<g>
			<linearGradient id="SVGID_34_" gradientUnits="userSpaceOnUse" x1="215.4614" y1="230.2173" x2="215.4614" y2="288.9655">
				<stop  offset="0" style="stop-color:#E6D069"/>
				<stop  offset="1" style="stop-color:#D79B51"/>
			</linearGradient>
			<path fill="url(#SVGID_34_)" d="M203.092,269.507v23.276h11.255v-19.056c0.958-0.789,2.184-1.263,3.522-1.263
				c1.288,0,2.47,0.442,3.411,1.18l6.552-6.552c-2.627-2.399-7.021-3.864-10.86-3.864
				C210.077,263.229,206.197,265.874,203.092,269.507z"/>
		</g>
	</g>
	<radialGradient id="SVGID_35_" cx="148.1992" cy="186.9556" r="41.3345" gradientUnits="userSpaceOnUse">
		<stop  offset="0" style="stop-color:#F5ECC3"/>
		<stop  offset="1" style="stop-color:#E6D069"/>
	</radialGradient>
	<polygon display="inline" fill="url(#SVGID_35_)" points="139.051,211.37 139.051,199.935 125.983,185.233 125.983,224.438 
		165.188,224.438 150.486,211.37 	"/>
	<radialGradient id="SVGID_36_" cx="214.2573" cy="193.8774" r="42.4413" gradientUnits="userSpaceOnUse">
		<stop  offset="0" style="stop-color:#F5ECC3"/>
		<stop  offset="1" style="stop-color:#E6D069"/>
	</radialGradient>
	<polygon display="inline" fill="url(#SVGID_36_)" points="230.529,211.37 219.094,211.37 204.392,224.438 243.597,224.438 
		243.597,185.233 230.529,199.935 	"/>
	<radialGradient id="SVGID_37_" cx="188.3833" cy="185.4473" r="64.0348" gradientUnits="userSpaceOnUse">
		<stop  offset="0" style="stop-color:#E6D069"/>
		<stop  offset="1" style="stop-color:#D79B51"/>
	</radialGradient>
	<path display="inline" fill="url(#SVGID_37_)" d="M158.98,166.934v26.136v18.299h19.603V193.07v-19.603
		c0-16.015,5.235-33.114,19.602-43.239v-23.405C173.73,115.936,160.583,136.689,158.98,166.934z"/>
	
		<radialGradient id="SVGID_38_" cx="189.9912" cy="160.6177" r="44.2587" gradientTransform="matrix(1.2058 0 0 1 -44.0386 0)" gradientUnits="userSpaceOnUse">
		<stop  offset="0" style="stop-color:#E6D069"/>
		<stop  offset="1" style="stop-color:#D79B51"/>
	</radialGradient>
	<path display="inline" fill="url(#SVGID_38_)" d="M198.185,118.585v-5.228c-23.589,7.29-36.272,23.892-37.819,48.088l0.536-0.022
		C163.86,140.072,176.343,125.334,198.185,118.585z"/>
	<path display="inline" fill="#D79B51" d="M158.98,193.07v18.299h19.603V193.07v-6.534h6.534v-19.602h-6.23
		c1.298-13.947,6.923-27.888,19.298-36.646v-2.285C173.23,138.996,158.98,164.77,158.98,193.07z"/>
	<polygon display="inline" fill="#E6D069" points="129.25,194.544 129.25,221.171 160.206,221.171 156.53,217.904 131.21,217.904 	
		"/>
	<polygon display="inline" fill="#E6D069" points="237.062,199.118 237.062,217.904 213.049,217.904 209.374,221.171 
		213.703,221.171 240.33,221.171 240.33,199.771 240.33,195.443 	"/>
	<polygon display="inline" fill="#F5ECC3" points="129.25,110.091 155.876,110.091 129.25,112.388 	"/>
</g>
<g id="tme">
	<g>
		<g>
			<path fill="#EA560D" d="M83.182,8.937H70.252V0h35.352v8.937H92.676v57.34h-9.494V8.937z"/>
		</g>
		<g>
			<path fill="#EA560D" d="M110.775,0h9.122l12.195,35.093h0.186L144.38,0h9.215v66.277H144.1V25.971h-0.187l-9.401,28.484h-4.748
				l-9.308-28.484h-0.187v40.306h-9.495V0z"/>
		</g>
		<g>
			<path fill="#EA560D" d="M161.353,0h27.595v8.937h-18.102v19.454h12.929v8.936h-12.929v19.456h18.102v9.495h-27.595V0z"/>
		</g>
	</g>
	<g>
		<linearGradient id="SVGID_39_" gradientUnits="userSpaceOnUse" x1="12.3579" y1="72.1855" x2="12.3579" y2="104.5851">
			<stop  offset="0" style="stop-color:#CCDC7C"/>
			<stop  offset="1" style="stop-color:#95C11F"/>
		</linearGradient>
		<path fill="url(#SVGID_39_)" d="M0.449,72.902c0.272-0.045,0.448-0.068,0.523-0.068c0.514,0,1.363,0.031,2.544,0.09
			c0.621,0.015,1.045,0.023,1.273,0.023c0.333,0,1.038-0.031,2.113-0.09l3.863-0.228c1.016-0.09,2.198-0.137,3.546-0.137
			c2.379,0,4.272,0.338,5.681,1.01c1.409,0.676,2.496,1.73,3.261,3.167c0.766,1.439,1.148,2.868,1.148,4.292
			c0,2.374-0.833,4.424-2.5,6.149c-1.667,1.724-3.909,2.587-6.727,2.587c-0.788,0-1.447-0.08-1.977-0.24
			c-0.531-0.158-1.137-0.465-1.819-0.92c-0.288-0.197-0.462-0.402-0.522-0.613c0.061-0.105,0.144-0.182,0.25-0.228
			c0.212,0,0.432,0.046,0.659,0.136c0.515,0.183,1.167,0.274,1.955,0.274c1.197,0,2.329-0.295,3.398-0.885
			c1.068-0.59,1.875-1.43,2.42-2.518c0.545-1.09,0.818-2.24,0.818-3.45c0-1.179-0.288-2.326-0.862-3.437
			c-0.574-1.113-1.331-2-2.268-2.666c-0.529-0.379-1.342-0.695-2.438-0.953c-1.097-0.256-1.947-0.385-2.551-0.385
			c-1.875,0-2.987,0.135-3.335,0.407l-0.022,0.319l0.068,2.565l-0.022,0.455c-0.031,0.408-0.046,1.037-0.046,1.885
			c0,3.088,0.046,5.009,0.137,5.768v1.271l0.294,10.377c0,0.15-0.018,0.432-0.056,0.84s-0.057,0.764-0.057,1.066
			c0,0.727,0.06,1.279,0.182,1.66c0.363,0.105,1.424,0.355,3.181,0.747c0.818,0.197,1.265,0.311,1.34,0.341
			c0.122,0.045,0.228,0.145,0.319,0.295c-0.062,0.228-0.141,0.375-0.239,0.445c-0.098,0.067-0.292,0.1-0.579,0.1
			c-0.182,0-0.607-0.037-1.273-0.112c-1.303-0.136-2.325-0.205-3.068-0.205l-4,0.159l-2.386-0.068c-0.152,0-0.591,0.016-1.319,0.047
			l-0.021-0.591l2.954-0.567c0.485-0.137,0.78-0.273,0.887-0.41c0.151-0.211,0.227-0.628,0.227-1.248
			c0-0.137,0.008-0.432,0.023-0.887c0.015-0.318,0.023-0.755,0.023-1.316c0-1.787-0.077-5.594-0.228-11.422
			c-0.061-2.725-0.091-5.496-0.091-8.311v-0.386c0-1.09-0.167-1.779-0.5-2.066c-0.561-0.499-1.961-0.909-4.204-1.227
			c-0.075-0.166-0.114-0.303-0.114-0.408C0.313,73.211,0.358,73.068,0.449,72.902z"/>
		<linearGradient id="SVGID_40_" gradientUnits="userSpaceOnUse" x1="37.9028" y1="72.186" x2="37.9028" y2="104.5857">
			<stop  offset="0" style="stop-color:#CCDC7C"/>
			<stop  offset="1" style="stop-color:#95C11F"/>
		</linearGradient>
		<path fill="url(#SVGID_40_)" d="M26.25,102.154l0.016-0.349c0.36-0.202,0.779-0.329,1.256-0.381
			c0.754-0.096,1.231-0.195,1.432-0.295c0.202-0.101,0.345-0.242,0.43-0.422c0.148-0.351,0.223-0.706,0.223-1.066l-0.032-1.21
			l0.015-1.113l-0.032-1.306c0-0.542,0.017-1.218,0.049-2.03c0.03-0.812,0.047-1.245,0.047-1.298v-4.346
			c0-0.69,0.015-1.437,0.047-2.236c0.032-0.801,0.047-1.357,0.047-1.664c0-0.914-0.021-1.443-0.062-1.592
			c-0.043-0.149-0.123-0.254-0.239-0.318c-0.117-0.065-0.498-0.123-1.145-0.176c-0.499-0.043-0.844-0.08-1.035-0.111
			c-0.052-0.118-0.08-0.211-0.08-0.287c0-0.084,0.005-0.185,0.015-0.302c0.255-0.021,0.451-0.032,0.59-0.032l1.496,0.017
			c1.061,0,2.183-0.044,3.372-0.128c0.583-0.042,1.463-0.08,2.641-0.112c0.021,0.096,0.031,0.187,0.031,0.271
			c0,0.105-0.024,0.188-0.072,0.246c-0.048,0.059-0.13,0.098-0.246,0.119c-1.391,0.117-2.208,0.289-2.458,0.517
			c-0.248,0.229-0.374,0.809-0.374,1.743c0,1.717,0.026,3.49,0.079,5.312l0.064,1.497c0.054,0.042,0.741,0.094,2.068,0.159
			c0.36,0.021,0.572,0.031,0.636,0.031l2.338-0.031l1.543,0.047l4.041-0.126c0.499-0.011,0.802-0.032,0.908-0.064
			c0.062-1.838,0.094-3.619,0.094-5.344c0-1.658-0.036-2.635-0.111-2.932c-0.043-0.18-0.118-0.301-0.223-0.363
			c-0.063-0.033-0.616-0.117-1.654-0.254c-0.181-0.023-0.351-0.049-0.509-0.08c-0.053-0.163-0.08-0.348-0.08-0.555
			c0.36-0.053,0.589-0.082,0.684-0.082l1.049,0.056c0.966,0.047,1.936,0.072,2.912,0.072c0.627,0,1.666-0.053,3.119-0.159
			c-0.011,0.212-0.039,0.402-0.08,0.572c-0.404,0.159-0.886,0.26-1.448,0.303c-0.36,0.021-0.663,0.08-0.906,0.174
			c-0.202,0.15-0.301,0.453-0.301,0.908c0,0.107,0.004,0.221,0.015,0.35c0.009,0.381,0.017,0.63,0.017,0.747v1.829l0.015,1.146
			l-0.031,1.479l0.017,2.768l-0.032,2.609c0,0.52,0.015,1.332,0.046,2.436l-0.015,2.146c0,0.722,0.062,1.235,0.19,1.543
			c0.063,0.149,0.169,0.254,0.318,0.318l1.289,0.287c0.636,0.159,1.015,0.289,1.137,0.389c0.122,0.101,0.183,0.221,0.183,0.359
			l-0.047,0.19l-0.08,0.017c-0.054,0-0.122-0.012-0.206-0.033c-1.157-0.211-2.372-0.318-3.644-0.318
			c-0.996,0-1.705,0.016-2.124,0.047c-0.419,0.032-1.29,0.149-2.616,0.351c-0.021-0.139-0.032-0.24-0.032-0.303
			c0-0.075,0.012-0.176,0.032-0.303c0.328-0.191,0.849-0.323,1.559-0.396c0.53-0.053,0.949-0.225,1.257-0.51
			c0.202-0.191,0.302-0.471,0.302-0.843l-0.015-2.291c0.032-0.688,0.047-1.066,0.047-1.129c0-0.9-0.015-2.216-0.047-3.945
			c-0.033-0.149-0.09-0.239-0.175-0.269c-0.286-0.097-1.696-0.075-4.232,0.062c-0.509,0.032-0.89,0.049-1.145,0.049
			s-0.788-0.014-1.599-0.041c-0.812-0.026-1.562-0.04-2.251-0.04c-0.371,0-0.685,0.004-0.938,0.016
			c-0.488,0.012-0.759,0.016-0.812,0.016c-0.244,0-0.412,0.049-0.502,0.143c-0.089,0.097-0.135,0.271-0.135,0.525l0.017,1.115
			c0,0.18-0.027,1.182-0.08,3.006c-0.012,0.371-0.017,0.677-0.017,0.921c0,1.453,0.053,2.418,0.159,2.896
			c0.054,0.222,0.15,0.375,0.287,0.461c0.095,0.062,0.51,0.174,1.242,0.334c0.486,0.107,0.858,0.207,1.113,0.303l0.095,0.159
			c0,0.053-0.022,0.097-0.063,0.126c-0.064,0.055-0.155,0.08-0.27,0.08c-0.087,0-0.187-0.002-0.304-0.007
			c-0.116-0.006-0.345-0.014-0.684-0.023c-0.541-0.012-1.214-0.05-2.02-0.112c-0.519-0.043-0.981-0.064-1.384-0.064
			c-0.679,0-1.766,0.037-3.261,0.108C26.695,102.148,26.452,102.154,26.25,102.154z"/>
		<linearGradient id="SVGID_41_" gradientUnits="userSpaceOnUse" x1="61.8931" y1="72.187" x2="61.8931" y2="104.586">
			<stop  offset="0" style="stop-color:#CCDC7C"/>
			<stop  offset="1" style="stop-color:#95C11F"/>
		</linearGradient>
		<path fill="url(#SVGID_41_)" d="M50.693,91.736c0-1.082,0.13-2.045,0.39-2.888c0.261-0.844,0.697-1.758,1.313-2.746
			c0.615-0.985,1.358-1.809,2.228-2.473c0.868-0.663,2.072-1.249,3.61-1.758c1.082-0.349,2.449-0.524,4.104-0.524
			c1.113,0,2.203,0.149,3.269,0.445c1.065,0.297,2.034,0.711,2.903,1.242c0.87,0.53,1.739,1.346,2.609,2.449
			c0.605,0.764,1.061,1.585,1.367,2.466c0.404,1.155,0.605,2.35,0.605,3.578c0,1.4-0.135,2.562-0.406,3.483
			c-0.27,0.923-0.724,1.836-1.359,2.737c-0.499,0.7-1.353,1.508-2.562,2.419c-0.806,0.614-1.807,1.11-3.006,1.485
			c-1.2,0.378-2.492,0.565-3.883,0.565c-1.41,0-2.667-0.164-3.77-0.492c-1.103-0.33-2.023-0.729-2.759-1.203
			c-0.738-0.471-1.497-1.168-2.275-2.092c-0.779-0.921-1.371-1.939-1.774-3.054C50.896,94.264,50.693,93.052,50.693,91.736z
			 M61.734,101.629c0.891,0,1.815-0.124,2.776-0.372c0.96-0.25,1.811-0.664,2.554-1.242c0.742-0.578,1.322-1.236,1.741-1.972
			c0.419-0.738,0.756-1.685,1.011-2.84c0.254-1.156,0.381-2.311,0.381-3.468c0-1.443-0.212-2.869-0.636-4.281
			c-0.328-1.07-0.864-2.027-1.606-2.871c-0.743-0.843-1.638-1.494-2.688-1.957c-1.05-0.459-2.169-0.691-3.357-0.691
			c-0.964,0-1.908,0.159-2.83,0.478c-0.923,0.317-1.682,0.724-2.276,1.216c-0.595,0.495-1.145,1.193-1.655,2.101
			c-0.508,0.907-0.896,1.905-1.16,2.997c-0.265,1.095-0.398,2.058-0.398,2.897c0,0.879,0.133,1.875,0.398,2.989
			c0.263,1.115,0.627,2.08,1.089,2.897c0.462,0.817,1.028,1.541,1.702,2.171s1.43,1.113,2.267,1.447
			C59.883,101.463,60.78,101.629,61.734,101.629z"/>
		<linearGradient id="SVGID_42_" gradientUnits="userSpaceOnUse" x1="84.4272" y1="72.186" x2="84.4272" y2="104.5862">
			<stop  offset="0" style="stop-color:#CCDC7C"/>
			<stop  offset="1" style="stop-color:#95C11F"/>
		</linearGradient>
		<path fill="url(#SVGID_42_)" d="M75.224,83.924l0.652-2.401c0.042-0.319,0.1-0.522,0.175-0.612
			c0.074-0.091,0.16-0.137,0.253-0.137c0.193,0,0.41,0.229,0.653,0.685c0.181,0.329,0.329,0.539,0.446,0.629
			c0.116,0.088,0.287,0.15,0.509,0.182l0.159-0.016l0.685,0.063l3.754,0.046l4.438-0.014h1.304l2.466-0.047
			c0.105,0,0.238,0.012,0.397,0.031c0.721,0.062,1.167,0.096,1.336,0.096c0.159,0,0.287-0.051,0.382-0.157
			c0.032-0.041,0.208-0.392,0.526-1.05c0.138-0.297,0.306-0.449,0.508-0.449c0.085,0,0.19,0.023,0.318,0.064
			c0.054,0.211,0.08,0.399,0.08,0.569l-0.017,0.632l0.017,1.342c0,0.325-0.026,1.379-0.08,3.155c0,0.117-0.021,0.222-0.064,0.316
			c-0.116,0.074-0.217,0.111-0.301,0.111s-0.159-0.039-0.222-0.119c-0.065-0.078-0.145-0.322-0.239-0.733
			c-0.213-0.946-0.477-1.623-0.795-2.033c-0.214-0.263-0.518-0.453-0.915-0.57c-0.398-0.115-1.35-0.172-2.856-0.172
			c-1.209,0-2.105,0-2.689,0c-0.021,0.424-0.031,0.812-0.031,1.164l0.127,9.885c0,0.395-0.021,1.137-0.064,2.23l0.016,2.117
			l-0.016,1.178c0,0.372,0.064,0.638,0.19,0.796c0.128,0.159,0.473,0.313,1.034,0.461c0.976,0.245,1.629,0.394,1.957,0.445
			c0.202,0.021,0.366,0.064,0.494,0.127v0.478l-2.259-0.056c-1.241-0.01-2.173-0.033-2.8-0.07l-2.323,0.112l-1.702,0.093
			c-0.477,0-0.77-0.009-0.875-0.032l-0.222-0.094c0.022-0.244,0.068-0.401,0.143-0.469c0.075-0.07,0.271-0.126,0.588-0.169
			c0.446-0.062,0.971-0.176,1.576-0.34c0.604-0.166,1.003-0.332,1.193-0.501c0.105-0.096,0.181-0.255,0.222-0.478
			c0.097-0.466,0.145-1.386,0.145-2.751v-2.705l-0.065-5.902l-0.063-1.272l-0.016-4.248c-0.668,0-1.521,0-2.56,0
			c-1.528,0-2.456,0.092-2.784,0.277c-0.521,0.289-1.294,1.132-2.323,2.53c-0.339,0.527-0.637,0.789-0.892,0.789l-0.142-0.033
			c-0.041-0.063-0.063-0.122-0.063-0.174c0-0.127,0.085-0.51,0.254-1.145C75.054,84.762,75.182,84.211,75.224,83.924z"/>
		<linearGradient id="SVGID_43_" gradientUnits="userSpaceOnUse" x1="107.3745" y1="72.187" x2="107.3745" y2="104.586">
			<stop  offset="0" style="stop-color:#CCDC7C"/>
			<stop  offset="1" style="stop-color:#95C11F"/>
		</linearGradient>
		<path fill="url(#SVGID_43_)" d="M96.175,91.736c0-1.082,0.13-2.045,0.391-2.888c0.259-0.844,0.697-1.758,1.313-2.746
			c0.614-0.985,1.356-1.809,2.227-2.473c0.869-0.663,2.073-1.249,3.611-1.758c1.082-0.349,2.449-0.524,4.104-0.524
			c1.113,0,2.203,0.149,3.268,0.445c1.065,0.297,2.034,0.711,2.903,1.242c0.87,0.53,1.74,1.346,2.61,2.449
			c0.604,0.764,1.061,1.585,1.367,2.466c0.405,1.155,0.605,2.35,0.605,3.578c0,1.4-0.135,2.562-0.405,3.483
			c-0.271,0.923-0.724,1.836-1.36,2.737c-0.499,0.7-1.352,1.508-2.562,2.419c-0.806,0.614-1.808,1.11-3.006,1.485
			c-1.199,0.378-2.492,0.565-3.881,0.565c-1.411,0-2.667-0.164-3.771-0.492c-1.104-0.33-2.022-0.729-2.76-1.203
			c-0.738-0.471-1.496-1.168-2.275-2.092c-0.778-0.921-1.371-1.939-1.774-3.054C96.377,94.264,96.175,93.052,96.175,91.736z
			 M107.216,101.629c0.891,0,1.816-0.124,2.775-0.372c0.961-0.25,1.812-0.664,2.554-1.242c0.743-0.578,1.324-1.236,1.742-1.972
			c0.419-0.738,0.756-1.685,1.011-2.84c0.253-1.156,0.381-2.311,0.381-3.468c0-1.443-0.212-2.869-0.636-4.281
			c-0.328-1.07-0.865-2.027-1.607-2.871c-0.743-0.843-1.638-1.494-2.688-1.957c-1.051-0.459-2.17-0.691-3.357-0.691
			c-0.965,0-1.91,0.159-2.832,0.478c-0.922,0.317-1.681,0.724-2.274,1.216c-0.595,0.495-1.146,1.193-1.656,2.101
			c-0.509,0.907-0.896,1.905-1.16,2.997c-0.265,1.095-0.398,2.058-0.398,2.897c0,0.879,0.133,1.875,0.398,2.989
			c0.264,1.115,0.627,2.08,1.089,2.897c0.461,0.817,1.028,1.541,1.703,2.171c0.672,0.631,1.429,1.113,2.265,1.447
			C105.365,101.463,106.261,101.629,107.216,101.629z"/>
		<linearGradient id="SVGID_44_" gradientUnits="userSpaceOnUse" x1="133.2251" y1="72.1851" x2="133.2251" y2="104.586">
			<stop  offset="0" style="stop-color:#CCDC7C"/>
			<stop  offset="1" style="stop-color:#95C11F"/>
		</linearGradient>
		<path fill="url(#SVGID_44_)" d="M141.354,82.589l0.175,2.417c0.062,0.733,0.095,1.231,0.095,1.495l-0.445,0.08
			c-0.71-1.611-1.593-2.82-2.648-3.625c-1.056-0.807-2.347-1.209-3.874-1.209c-1.867,0-3.319,0.227-4.359,0.684
			c-1.505,0.646-2.794,1.771-3.865,3.371c-1.072,1.602-1.607,3.531-1.607,5.791c0,1.305,0.196,2.477,0.589,3.516
			c0.392,1.039,0.946,2.008,1.662,2.904c0.716,0.895,1.562,1.673,2.539,2.329c0.636,0.437,1.393,0.765,2.274,0.987
			c0.499,0.117,1.241,0.176,2.227,0.176c0.636,0,1.342-0.09,2.115-0.271c0.774-0.18,1.358-0.422,1.75-0.723
			c0.393-0.304,0.661-0.646,0.803-1.027c0.145-0.382,0.216-1.124,0.216-2.228c0-1.834-0.122-2.903-0.367-3.205
			c-0.245-0.302-1.012-0.501-2.306-0.597l-0.637-0.047l-0.429,0.015c-0.064-0.01-0.149-0.024-0.256-0.045l-0.238-0.398
			c0-0.054,0.036-0.122,0.111-0.207c0.552-0.084,1.75-0.128,3.596-0.128c0.413,0,1.087,0.012,2.021,0.033l1.639,0.064l1.479-0.017
			c0.285,0,0.63,0.012,1.035,0.032c0.073,0.012,0.121,0.029,0.143,0.056c0.021,0.026,0.031,0.073,0.031,0.135
			c0,0.117-0.027,0.267-0.079,0.445c-0.446,0.096-0.79,0.145-1.035,0.145l-1.034-0.016c-0.35,0-0.631,0.123-0.843,0.366
			c-0.106,0.115-0.16,0.513-0.16,1.193l0.017,2.082c0,1.433-0.058,2.345-0.175,2.738c-0.064,0.233-0.196,0.441-0.398,0.627
			c-0.2,0.186-0.625,0.408-1.272,0.661c-0.922,0.371-1.76,0.621-2.513,0.748c-1.4,0.244-2.751,0.366-4.056,0.366
			c-2.102,0-3.822-0.267-5.163-0.803c-1.342-0.536-2.498-1.28-3.468-2.235c-0.972-0.953-1.663-1.919-2.076-2.896
			c-0.626-1.431-0.94-2.887-0.94-4.373c0-1.855,0.492-3.673,1.473-5.449c0.981-1.777,2.563-3.222,4.748-4.335
			c1.538-0.784,3.627-1.178,6.268-1.178c1.824,0,3.316,0.16,4.478,0.479C139.756,81.825,140.676,82.186,141.354,82.589z"/>
		<linearGradient id="SVGID_45_" gradientUnits="userSpaceOnUse" x1="156.0376" y1="72.186" x2="156.0376" y2="104.585">
			<stop  offset="0" style="stop-color:#CCDC7C"/>
			<stop  offset="1" style="stop-color:#95C11F"/>
		</linearGradient>
		<path fill="url(#SVGID_45_)" d="M146.157,101.407c1.542-0.18,2.413-0.307,2.614-0.381c0.136-0.052,0.262-0.211,0.38-0.477v-0.176
			c0-0.264,0.042-1.223,0.126-2.875c0.021-0.467,0.032-0.924,0.032-1.368l-0.049-1.89l0.032-2.147l-0.015-3.99l0.015-2.861
			c0.011-1.208-0.082-1.944-0.278-2.21c-0.196-0.264-0.703-0.452-1.518-0.563c-0.817-0.111-1.268-0.193-1.353-0.246
			c-0.085-0.053-0.126-0.137-0.126-0.256c0-0.074,0.014-0.168,0.047-0.285c0.104-0.096,0.35-0.15,0.731-0.159
			c0.054,0,0.2-0.015,0.438-0.041c0.239-0.027,0.463-0.039,0.676-0.039h1.304l4.184-0.049c2.364,0,4.022,0.175,4.972,0.527
			c0.948,0.349,1.705,0.94,2.267,1.772c0.562,0.832,0.844,1.763,0.844,2.792c0,1.952-1.024,3.442-3.067,4.469
			c-0.351,0.18-0.626,0.34-0.826,0.477c0.36,0.764,0.861,1.681,1.508,2.75l2.016,3.464c0.808,1.275,1.364,2.074,1.67,2.398
			c0.308,0.325,0.683,0.594,1.123,0.805c0.441,0.213,1.181,0.414,2.22,0.604c0.01,0.108,0.016,0.193,0.016,0.255
			c0,0.064-0.006,0.143-0.016,0.24c-1.453,0.021-3.155,0.03-5.106,0.03c-0.139,0-0.329-0.009-0.573-0.03
			c-0.753-1.445-1.639-3.033-2.656-4.764l-2.355-4.304c-0.318-0.445-0.58-0.725-0.788-0.835c-0.206-0.111-0.479-0.167-0.819-0.167
			l-1.353,0.015l-0.444-0.015c-0.033,0.34-0.048,1.034-0.048,2.083v5.44c-0.012,0.202,0.032,0.483,0.127,0.844
			c0.084,0.202,0.23,0.363,0.437,0.484c0.207,0.123,0.803,0.307,1.791,0.55l0.651,0.159c0.085,0.105,0.127,0.249,0.127,0.43
			c-0.286,0.053-0.488,0.08-0.604,0.08c-0.954,0-1.625-0.011-2.016-0.032c-0.202-0.012-0.367-0.016-0.493-0.016l-2.159,0.031
			l-2.112-0.015c-0.097,0-0.578,0.015-1.444,0.048l-0.319-0.064l-0.031-0.16C145.936,101.646,146.01,101.533,146.157,101.407z
			 M152.061,91.003c0.287,0.012,0.499,0.016,0.636,0.016c0.765,0,1.644-0.089,2.64-0.27c0.701-0.139,1.268-0.363,1.704-0.675
			c0.434-0.313,0.797-0.776,1.089-1.389c0.292-0.615,0.438-1.25,0.438-1.906c0-0.719-0.229-1.48-0.685-2.286
			c-0.35-0.615-0.94-1.128-1.772-1.541c-0.833-0.413-1.833-0.619-3-0.619c-0.285,0-0.657,0.016-1.113,0.047
			c-0.042,0.551-0.062,0.973-0.062,1.27l0.08,2.97l-0.017,1.223C151.996,88.668,152.018,89.723,152.061,91.003z"/>
		<linearGradient id="SVGID_46_" gradientUnits="userSpaceOnUse" x1="178.9858" y1="72.1865" x2="178.9858" y2="104.5862">
			<stop  offset="0" style="stop-color:#CCDC7C"/>
			<stop  offset="1" style="stop-color:#95C11F"/>
		</linearGradient>
		<path fill="url(#SVGID_46_)" d="M168.024,101.391c0.149-0.084,0.281-0.127,0.398-0.127h0.366c0.074,0,0.2-0.004,0.381-0.015
			c0.817-0.073,1.299-0.149,1.447-0.223c0.371-0.201,0.689-0.551,0.955-1.049c0.551-1.082,1.171-2.615,1.861-4.599
			c0.328-0.943,0.536-1.516,0.62-1.717c0.265-0.637,0.521-1.304,0.764-2.004l1.496-4.186c0.234-0.657,0.795-2.163,1.687-4.516
			c0.221-0.596,0.491-1.391,0.812-2.387l0.467-0.033l0.556,0.017c0.457,0.9,0.858,1.872,1.21,2.91
			c0.189,0.551,0.502,1.374,0.937,2.466l2.414,6.536l1.287,3.548c0.68,2.016,1.125,3.254,1.336,3.715
			c0.213,0.462,0.41,0.767,0.589,0.916c0.053,0.043,0.252,0.106,0.596,0.191c0.346,0.084,0.588,0.147,0.725,0.19
			c0.487,0.138,0.828,0.255,1.017,0.349c0.043,0.118,0.066,0.208,0.066,0.272c0,0.053-0.018,0.133-0.049,0.238
			c-0.34,0.01-0.578,0.016-0.717,0.016c-0.54,0-1.495-0.016-2.863-0.048l-1.59-0.035l-1.925,0.023c-0.129,0-0.257-0.006-0.391-0.018
			c-0.131-0.012-0.245-0.018-0.342-0.018h-0.351c-0.116-0.012-0.222-0.042-0.318-0.096c0-0.147,0.028-0.291,0.081-0.428
			c0.127-0.064,0.245-0.101,0.351-0.111l1.67-0.113c0.434-0.02,0.762-0.08,0.984-0.174c0.066-0.193,0.096-0.335,0.096-0.431
			c0-0.19-0.137-0.686-0.414-1.482c-0.19-0.532-0.356-1.036-0.5-1.514c-0.144-0.478-0.707-2.051-1.692-4.717
			c-0.435-0.076-0.815-0.113-1.144-0.113l-3.406,0.033l-1.002-0.017c-0.358,0-0.756,0.027-1.193,0.08
			c-0.136,0.319-0.229,0.547-0.27,0.685l-1.401,4.375c-0.594,1.664-0.892,2.58-0.892,2.752c0,0.094,0.048,0.252,0.143,0.477
			c0.223,0.063,0.521,0.121,0.891,0.174l2.165,0.19c0.117,0.096,0.173,0.18,0.173,0.255c0,0.054-0.015,0.134-0.047,0.24
			c-0.477,0.012-0.843,0.016-1.097,0.016c-0.849,0-1.835-0.027-2.96-0.08c-0.519-0.021-0.89-0.032-1.113-0.032
			c-0.222,0-0.61,0.012-1.16,0.032c-0.361,0.021-0.621,0.032-0.78,0.032c-0.254,0-0.583-0.017-0.986-0.048v-0.096
			C167.961,101.621,167.982,101.52,168.024,101.391z M175.617,91.847c1.132,0.063,2.427,0.096,3.878,0.096
			c0.829,0,1.556-0.027,2.179-0.08c-0.106-0.415-0.227-0.801-0.363-1.162c-0.689-1.845-1.071-2.862-1.145-3.052l-1.446-3.672
			l-0.159-0.287c-0.063,0.127-0.298,0.672-0.699,1.636c-0.682,1.655-1.169,2.941-1.467,3.866c-0.139,0.412-0.28,0.822-0.431,1.232
			c-0.148,0.408-0.239,0.694-0.278,0.858c-0.037,0.164-0.093,0.331-0.167,0.501L175.617,91.847z"/>
		<linearGradient id="SVGID_47_" gradientUnits="userSpaceOnUse" x1="200.5933" y1="72.188" x2="200.5933" y2="104.5859">
			<stop  offset="0" style="stop-color:#CCDC7C"/>
			<stop  offset="1" style="stop-color:#95C11F"/>
		</linearGradient>
		<path fill="url(#SVGID_47_)" d="M192.255,81.602c0.192-0.032,0.313-0.047,0.366-0.047c0.36,0,0.955,0.021,1.783,0.062
			c0.433,0.011,0.731,0.017,0.891,0.017c0.232,0,0.725-0.023,1.48-0.064l2.704-0.16c0.71-0.063,1.539-0.093,2.48-0.093
			c1.667,0,2.992,0.235,3.977,0.705c0.988,0.471,1.748,1.211,2.283,2.217c0.537,1.005,0.806,2.007,0.806,3.002
			c0,1.665-0.583,3.099-1.751,4.306c-1.166,1.207-2.737,1.812-4.708,1.812c-0.554,0-1.013-0.056-1.384-0.167
			s-0.795-0.328-1.273-0.646c-0.203-0.137-0.323-0.279-0.366-0.429c0.043-0.073,0.1-0.126,0.175-0.16
			c0.148,0,0.303,0.033,0.463,0.096c0.361,0.128,0.815,0.191,1.369,0.191c0.834,0,1.629-0.205,2.375-0.62
			c0.75-0.413,1.313-1,1.694-1.763c0.383-0.762,0.573-1.566,0.573-2.414c0-0.824-0.199-1.626-0.604-2.406
			c-0.402-0.777-0.932-1.4-1.586-1.866c-0.371-0.265-0.939-0.488-1.706-0.666c-0.769-0.181-1.365-0.271-1.788-0.271
			c-1.311,0-2.091,0.096-2.334,0.285l-0.014,0.223l0.047,1.797l-0.017,0.317c-0.021,0.287-0.03,0.726-0.03,1.319
			c0,2.162,0.03,3.508,0.096,4.039v0.891l0.204,7.263c0,0.105-0.012,0.302-0.038,0.589c-0.028,0.286-0.04,0.534-0.04,0.747
			c0,0.507,0.042,0.894,0.126,1.16c0.254,0.073,0.997,0.249,2.227,0.523c0.572,0.139,0.886,0.218,0.939,0.239
			c0.085,0.032,0.159,0.101,0.223,0.208c-0.043,0.158-0.1,0.262-0.168,0.311c-0.068,0.047-0.204,0.07-0.405,0.07
			c-0.126,0-0.425-0.026-0.89-0.08c-0.914-0.094-1.627-0.143-2.148-0.143l-2.801,0.112l-1.668-0.049
			c-0.107,0-0.416,0.012-0.925,0.033l-0.015-0.414l2.068-0.397c0.341-0.095,0.545-0.191,0.621-0.287
			c0.106-0.148,0.158-0.439,0.158-0.873c0-0.095,0.006-0.302,0.017-0.621c0.01-0.222,0.014-0.53,0.014-0.921
			c0-1.25-0.053-3.914-0.159-7.996c-0.041-1.906-0.062-3.844-0.062-5.818v-0.27c0-0.762-0.116-1.244-0.348-1.445
			c-0.394-0.35-1.374-0.635-2.945-0.858c-0.053-0.117-0.079-0.212-0.079-0.287C192.162,81.819,192.191,81.719,192.255,81.602z"/>
		<linearGradient id="SVGID_48_" gradientUnits="userSpaceOnUse" x1="223.4482" y1="72.186" x2="223.4482" y2="104.5857">
			<stop  offset="0" style="stop-color:#CCDC7C"/>
			<stop  offset="1" style="stop-color:#95C11F"/>
		</linearGradient>
		<path fill="url(#SVGID_48_)" d="M211.795,102.154l0.017-0.349c0.358-0.202,0.778-0.329,1.256-0.381
			c0.754-0.096,1.231-0.195,1.43-0.295c0.203-0.101,0.346-0.242,0.433-0.422c0.145-0.351,0.221-0.706,0.221-1.066l-0.033-1.21
			l0.016-1.113l-0.03-1.306c0-0.542,0.015-1.218,0.048-2.03c0.031-0.812,0.048-1.245,0.048-1.298v-4.346
			c0-0.69,0.016-1.437,0.048-2.236c0.031-0.801,0.046-1.357,0.046-1.664c0-0.914-0.021-1.443-0.064-1.592
			c-0.042-0.149-0.121-0.254-0.236-0.318c-0.119-0.065-0.5-0.123-1.147-0.176c-0.498-0.043-0.843-0.08-1.033-0.111
			c-0.054-0.118-0.081-0.211-0.081-0.287c0-0.084,0.006-0.185,0.015-0.302c0.255-0.021,0.453-0.032,0.591-0.032l1.495,0.017
			c1.06,0,2.185-0.044,3.37-0.128c0.584-0.042,1.464-0.08,2.642-0.112c0.023,0.096,0.032,0.187,0.032,0.271
			c0,0.105-0.025,0.188-0.072,0.246c-0.049,0.059-0.129,0.098-0.246,0.119c-1.39,0.117-2.208,0.289-2.459,0.517
			c-0.247,0.229-0.373,0.809-0.373,1.743c0,1.717,0.027,3.49,0.08,5.312l0.064,1.497c0.053,0.042,0.743,0.094,2.066,0.159
			c0.362,0.021,0.575,0.031,0.639,0.031l2.338-0.031l1.544,0.047l4.038-0.126c0.501-0.011,0.804-0.032,0.909-0.064
			c0.062-1.838,0.094-3.619,0.094-5.344c0-1.658-0.035-2.635-0.111-2.932c-0.043-0.18-0.117-0.301-0.223-0.363
			c-0.063-0.033-0.616-0.117-1.655-0.254c-0.18-0.023-0.351-0.049-0.509-0.08c-0.054-0.163-0.08-0.348-0.08-0.555
			c0.36-0.053,0.589-0.082,0.685-0.082l1.049,0.056c0.967,0.047,1.937,0.072,2.911,0.072c0.628,0,1.669-0.053,3.119-0.159
			c-0.008,0.212-0.038,0.402-0.077,0.572c-0.406,0.159-0.887,0.26-1.451,0.303c-0.359,0.021-0.66,0.08-0.906,0.174
			c-0.203,0.15-0.301,0.453-0.301,0.908c0,0.107,0.006,0.221,0.016,0.35c0.009,0.381,0.015,0.63,0.015,0.747v1.829l0.016,1.146
			l-0.031,1.479l0.015,2.768l-0.031,2.609c0,0.52,0.016,1.332,0.047,2.436l-0.016,2.146c0,0.722,0.062,1.235,0.191,1.543
			c0.063,0.149,0.168,0.254,0.318,0.318l1.287,0.287c0.637,0.159,1.016,0.289,1.139,0.389c0.122,0.101,0.184,0.221,0.184,0.359
			l-0.049,0.19l-0.078,0.017c-0.057,0-0.125-0.012-0.207-0.033c-1.157-0.211-2.372-0.318-3.645-0.318
			c-0.997,0-1.704,0.016-2.124,0.047c-0.419,0.032-1.291,0.149-2.615,0.351c-0.023-0.139-0.033-0.24-0.033-0.303
			c0-0.075,0.01-0.176,0.033-0.303c0.328-0.191,0.848-0.323,1.557-0.396c0.531-0.053,0.949-0.225,1.257-0.51
			c0.199-0.191,0.301-0.471,0.301-0.843l-0.014-2.291c0.032-0.688,0.047-1.066,0.047-1.129c0-0.9-0.015-2.216-0.047-3.945
			c-0.033-0.149-0.092-0.239-0.176-0.269c-0.287-0.097-1.697-0.075-4.23,0.062c-0.512,0.032-0.894,0.049-1.147,0.049
			c-0.253,0-0.786-0.014-1.598-0.041s-1.562-0.04-2.25-0.04c-0.373,0-0.685,0.004-0.94,0.016c-0.487,0.012-0.756,0.016-0.812,0.016
			c-0.244,0-0.41,0.049-0.501,0.143c-0.088,0.097-0.135,0.271-0.135,0.525l0.016,1.115c0,0.18-0.025,1.182-0.077,3.006
			c-0.015,0.371-0.019,0.677-0.019,0.921c0,1.453,0.054,2.418,0.159,2.896c0.053,0.222,0.149,0.375,0.287,0.461
			c0.095,0.062,0.507,0.174,1.241,0.334c0.487,0.107,0.857,0.207,1.113,0.303l0.096,0.159c0,0.053-0.023,0.097-0.063,0.126
			c-0.066,0.055-0.155,0.08-0.27,0.08c-0.087,0-0.188-0.002-0.305-0.007c-0.114-0.006-0.345-0.014-0.683-0.023
			c-0.541-0.012-1.216-0.05-2.021-0.112c-0.521-0.043-0.982-0.064-1.384-0.064c-0.68,0-1.768,0.037-3.263,0.108
			C212.242,102.148,211.996,102.154,211.795,102.154z"/>
		<linearGradient id="SVGID_49_" gradientUnits="userSpaceOnUse" x1="247.9023" y1="72.187" x2="247.9023" y2="104.5867">
			<stop  offset="0" style="stop-color:#CCDC7C"/>
			<stop  offset="1" style="stop-color:#95C11F"/>
		</linearGradient>
		<path fill="url(#SVGID_49_)" d="M236.918,81.41h0.762c0.275,0,0.882,0.016,1.814,0.042c1.442,0.057,2.641,0.085,3.597,0.085
			l1.859-0.032c0.265,0,0.521,0.021,0.767,0.063c0.072,0.085,0.111,0.176,0.111,0.272v0.173l-0.402,0.19h-0.175l-0.896,0.017
			l-0.465-0.017c-0.363,0-0.656,0.079-0.879,0.238c-0.171,0.117-0.253,0.239-0.253,0.367c0,0.14,0.073,0.312,0.221,0.525
			c0.055,0.084,0.139,0.211,0.255,0.383c0.212,0.361,0.491,0.781,0.844,1.256c0.5,0.701,1.03,1.531,1.59,2.484
			c0.225,0.383,0.457,0.748,0.703,1.098l2.418,3.662c0.16-0.202,0.375-0.499,0.654-0.891l2.294-3.296l2.646-3.964
			c0.233-0.361,0.374-0.626,0.415-0.796c0.02-0.084,0.032-0.174,0.032-0.27c0-0.223-0.1-0.404-0.301-0.542
			c-0.329-0.222-1.041-0.386-2.133-0.494c-0.075-0.01-0.176-0.025-0.303-0.045c-0.072-0.129-0.111-0.234-0.111-0.319
			c0-0.064,0.005-0.133,0.015-0.208l0.828-0.016l2.99,0.08l2.402-0.048c0.066,0,0.287,0.007,0.668,0.016l-0.047,0.557
			c-0.073,0.023-0.19,0.039-0.349,0.048l-0.386,0.048c-0.063,0.01-0.164,0.022-0.3,0.032c-0.224,0.084-0.398,0.173-0.524,0.27
			c-1.562,1.645-2.886,3.199-3.977,4.662c-1.093,1.463-2.015,2.793-2.769,3.993c-0.243,0.393-0.44,0.684-0.59,0.875
			c-0.273,0.361-0.438,0.625-0.493,0.795c-0.114,0.414-0.172,1.041-0.172,1.881c0,3.304,0.058,5.253,0.172,5.848
			c0.064,0.298,0.151,0.478,0.256,0.542c0.275,0.137,1.373,0.304,3.293,0.494v0.188c0,0.124-0.038,0.273-0.111,0.449l-4.08-0.176
			l-2.725,0.143h-2.231c-0.212,0-0.447-0.004-0.702-0.016c-0.041-0.115-0.061-0.201-0.061-0.253c0-0.053,0.013-0.127,0.047-0.223
			c0.076-0.063,0.149-0.1,0.224-0.112l2.062-0.318c0.711-0.232,1.113-0.393,1.195-0.477c0.129-0.127,0.211-0.324,0.241-0.588
			c0.01-0.191,0.017-1.667,0.017-4.423c0-1.028-0.036-1.657-0.104-1.885c-0.07-0.229-0.295-0.629-0.676-1.202l-2.083-3.166
			l-3.548-5.17c-0.614-0.894-1.151-1.494-1.608-1.8c-0.199-0.136-0.704-0.242-1.508-0.315c-0.088,0-0.214-0.011-0.383-0.032
			L236.918,81.41z"/>
	</g>
	<line fill="none" stroke="#A2E0F0" stroke-miterlimit="10" x1="0" y1="109.657" x2="259.2" y2="109.657"/>
	<g>
		<rect x="2.901" y="114.828" fill="#DFF1F9" width="5.171" height="5.172"/>
		<rect x="13.244" y="114.828" fill="#DFF1F9" width="5.171" height="5.172"/>
		<rect x="23.586" y="114.828" fill="#DFF1F9" width="5.172" height="5.172"/>
		<rect x="33.93" y="114.828" fill="#DFF1F9" width="5.171" height="5.172"/>
		<rect x="44.272" y="114.828" fill="#DFF1F9" width="5.171" height="5.172"/>
		<rect x="54.615" y="114.828" fill="#DFF1F9" width="5.172" height="5.172"/>
		<rect x="64.958" y="114.828" fill="#DFF1F9" width="5.171" height="5.172"/>
		<rect x="75.3" y="114.828" fill="#DFF1F9" width="5.172" height="5.172"/>
		<rect x="85.643" y="114.828" fill="#DFF1F9" width="5.172" height="5.172"/>
		<rect x="95.986" y="114.828" fill="#DFF1F9" width="5.171" height="5.172"/>
		<rect x="106.329" y="114.828" fill="#DFF1F9" width="5.172" height="5.172"/>
		<rect x="116.671" y="114.828" fill="#DFF1F9" width="5.172" height="5.172"/>
		<rect x="127.014" y="114.828" fill="#DFF1F9" width="5.171" height="5.172"/>
		<rect x="137.357" y="114.828" fill="#DFF1F9" width="5.172" height="5.172"/>
		<rect x="147.7" y="114.828" fill="#DFF1F9" width="5.172" height="5.172"/>
		<rect x="158.043" y="114.828" fill="#DFF1F9" width="5.171" height="5.172"/>
		<rect x="168.385" y="114.828" fill="#DFF1F9" width="5.172" height="5.172"/>
		<rect x="178.729" y="114.828" fill="#DFF1F9" width="5.17" height="5.172"/>
		<rect x="189.071" y="114.828" fill="#DFF1F9" width="5.171" height="5.172"/>
		<rect x="199.414" y="114.828" fill="#DFF1F9" width="5.172" height="5.172"/>
		<rect x="209.756" y="114.828" fill="#DFF1F9" width="5.173" height="5.172"/>
		<rect x="220.099" y="114.828" fill="#DFF1F9" width="5.172" height="5.172"/>
		<rect x="230.441" y="114.828" fill="#DFF1F9" width="5.174" height="5.172"/>
		<rect x="240.785" y="114.828" fill="#DFF1F9" width="5.171" height="5.172"/>
		<rect x="251.127" y="114.828" fill="#DFF1F9" width="5.172" height="5.172"/>
	</g>
	<g>
		
			<linearGradient id="SVGID_50_" gradientUnits="userSpaceOnUse" x1="106.9067" y1="55.4766" x2="106.9067" y2="1.4601" gradientTransform="matrix(1.8519 0 0 1.8519 -110.0516 -50.7613)">
			<stop  offset="0" style="stop-color:#EA560D"/>
			<stop  offset="1" style="stop-color:#9E3A09"/>
		</linearGradient>
		<path fill="url(#SVGID_50_)" d="M104.404,1.2v6.536H92.676h-1.2v1.201v56.14h-7.094V8.937V7.736h-1.2H71.453V1.2H104.404
			 M105.604,0H70.252v8.937h12.929v57.34h9.494V8.937h12.928V0L105.604,0z"/>
		
			<linearGradient id="SVGID_51_" gradientUnits="userSpaceOnUse" x1="130.8047" y1="55.4766" x2="130.8047" y2="1.4601" gradientTransform="matrix(1.8519 0 0 1.8519 -110.0516 -50.7613)">
			<stop  offset="0" style="stop-color:#EA560D"/>
			<stop  offset="1" style="stop-color:#9E3A09"/>
		</linearGradient>
		<path fill="url(#SVGID_51_)" d="M152.395,1.2v63.876h-7.094V25.971v-1.199H144.1h-0.187h-0.867l-0.272,0.824l-9.129,27.659h-3.01
			l-9.037-27.656l-0.271-0.827h-0.87h-0.187h-1.2v1.199v39.105h-7.095V1.2h7.069l11.915,34.287l0.28,0.807h0.853h0.186h0.855
			l0.279-0.809L145.235,1.2H152.395 M153.595,0h-9.215l-12.102,35.093h-0.186L119.897,0h-9.122v66.277h9.495V25.971h0.187
			l9.308,28.484h4.748l9.401-28.484h0.187v40.306h9.495V0L153.595,0z"/>
		
			<linearGradient id="SVGID_52_" gradientUnits="userSpaceOnUse" x1="154.0054" y1="55.4766" x2="154.0054" y2="1.4601" gradientTransform="matrix(1.8519 0 0 1.8519 -110.0516 -50.7613)">
			<stop  offset="0" style="stop-color:#EA560D"/>
			<stop  offset="1" style="stop-color:#9E3A09"/>
		</linearGradient>
		<path fill="url(#SVGID_52_)" d="M187.747,1.2v6.536h-16.901h-1.2v1.201v19.454v1.201h1.2h11.73v6.536h-11.73h-1.2v1.199v19.456
			v1.201h1.2h16.901v7.094h-25.195V1.2H187.747 M188.947,0h-27.595v66.277h27.595v-9.495h-18.102V37.326h12.929v-8.936h-12.929
			V8.937h18.102V0L188.947,0z"/>
	</g>
</g>
</svg>
